<svg width="64" height="64" viewBox="0 0 64 64" fill="none" xmlns="http://www.w3.org/2000/svg">
<path d="M1.70262 3.08297C2.32042 3.08297 2.82125 2.58214 2.82125 1.96433C2.82125 1.34653 2.32042 0.845703 1.70262 0.845703C1.08481 0.845703 0.583984 1.34653 0.583984 1.96433C0.583984 2.58214 1.08481 3.08297 1.70262 3.08297Z" fill="white" fill-opacity="0.5"/>
<path d="M8.41441 3.08297C9.03221 3.08297 9.53304 2.58214 9.53304 1.96433C9.53304 1.34653 9.03221 0.845703 8.41441 0.845703C7.7966 0.845703 7.29577 1.34653 7.29577 1.96433C7.29577 2.58214 7.7966 3.08297 8.41441 3.08297Z" fill="white" fill-opacity="0.5"/>
<path d="M16.2448 1.96433C16.2448 2.58214 15.744 3.08297 15.1262 3.08297C14.5084 3.08297 14.0076 2.58214 14.0076 1.96433C14.0076 1.34653 14.5084 0.845703 15.1262 0.845703C15.744 0.845703 16.2448 1.34653 16.2448 1.96433Z" fill="white" fill-opacity="0.5"/>
<path d="M21.838 3.08297C22.4558 3.08297 22.9566 2.58214 22.9566 1.96433C22.9566 1.34653 22.4558 0.845703 21.838 0.845703C21.2202 0.845703 20.7194 1.34653 20.7194 1.96433C20.7194 2.58214 21.2202 3.08297 21.838 3.08297Z" fill="white" fill-opacity="0.5"/>
<path d="M29.6684 1.96433C29.6684 2.58214 29.1676 3.08297 28.5498 3.08297C27.932 3.08297 27.4311 2.58214 27.4311 1.96433C27.4311 1.34653 27.932 0.845703 28.5498 0.845703C29.1676 0.845703 29.6684 1.34653 29.6684 1.96433Z" fill="white" fill-opacity="0.5"/>
<path d="M35.2616 3.08297C35.8794 3.08297 36.3802 2.58214 36.3802 1.96433C36.3802 1.34653 35.8794 0.845703 35.2616 0.845703C34.6438 0.845703 34.1429 1.34653 34.1429 1.96433C34.1429 2.58214 34.6438 3.08297 35.2616 3.08297Z" fill="white" fill-opacity="0.5"/>
<path d="M43.092 1.96433C43.092 2.58214 42.5912 3.08297 41.9734 3.08297C41.3556 3.08297 40.8547 2.58214 40.8547 1.96433C40.8547 1.34653 41.3556 0.845703 41.9734 0.845703C42.5912 0.845703 43.092 1.34653 43.092 1.96433Z" fill="white" fill-opacity="0.5"/>
<path d="M48.6852 3.08297C49.303 3.08297 49.8038 2.58214 49.8038 1.96433C49.8038 1.34653 49.303 0.845703 48.6852 0.845703C48.0673 0.845703 47.5665 1.34653 47.5665 1.96433C47.5665 2.58214 48.0673 3.08297 48.6852 3.08297Z" fill="white" fill-opacity="0.5"/>
<path d="M56.5156 1.96433C56.5156 2.58214 56.0147 3.08297 55.3969 3.08297C54.7791 3.08297 54.2783 2.58214 54.2783 1.96433C54.2783 1.34653 54.7791 0.845703 55.3969 0.845703C56.0147 0.845703 56.5156 1.34653 56.5156 1.96433Z" fill="white" fill-opacity="0.5"/>
<path d="M62.1087 3.08297C62.7265 3.08297 63.2274 2.58214 63.2274 1.96433C63.2274 1.34653 62.7265 0.845703 62.1087 0.845703C61.4909 0.845703 60.9901 1.34653 60.9901 1.96433C60.9901 2.58214 61.4909 3.08297 62.1087 3.08297Z" fill="white" fill-opacity="0.5"/>
<path d="M2.82125 8.67613C2.82125 9.29393 2.32042 9.79476 1.70262 9.79476C1.08481 9.79476 0.583984 9.29393 0.583984 8.67613C0.583984 8.05832 1.08481 7.55749 1.70262 7.55749C2.32042 7.55749 2.82125 8.05832 2.82125 8.67613Z" fill="white" fill-opacity="0.5"/>
<path d="M8.41441 9.79476C9.03221 9.79476 9.53304 9.29393 9.53304 8.67613C9.53304 8.05832 9.03221 7.55749 8.41441 7.55749C7.7966 7.55749 7.29577 8.05832 7.29577 8.67613C7.29577 9.29393 7.7966 9.79476 8.41441 9.79476Z" fill="white" fill-opacity="0.5"/>
<path d="M16.2448 8.67613C16.2448 9.29393 15.744 9.79476 15.1262 9.79476C14.5084 9.79476 14.0076 9.29393 14.0076 8.67613C14.0076 8.05832 14.5084 7.55749 15.1262 7.55749C15.744 7.55749 16.2448 8.05832 16.2448 8.67613Z" fill="white" fill-opacity="0.5"/>
<path d="M21.838 9.79476C22.4558 9.79476 22.9566 9.29393 22.9566 8.67613C22.9566 8.05832 22.4558 7.55749 21.838 7.55749C21.2202 7.55749 20.7194 8.05832 20.7194 8.67613C20.7194 9.29393 21.2202 9.79476 21.838 9.79476Z" fill="white" fill-opacity="0.5"/>
<path d="M29.6684 8.67613C29.6684 9.29393 29.1676 9.79476 28.5498 9.79476C27.932 9.79476 27.4311 9.29393 27.4311 8.67613C27.4311 8.05832 27.932 7.55749 28.5498 7.55749C29.1676 7.55749 29.6684 8.05832 29.6684 8.67613Z" fill="white" fill-opacity="0.5"/>
<path d="M35.2616 9.79476C35.8794 9.79476 36.3802 9.29393 36.3802 8.67613C36.3802 8.05832 35.8794 7.55749 35.2616 7.55749C34.6438 7.55749 34.1429 8.05832 34.1429 8.67613C34.1429 9.29393 34.6438 9.79476 35.2616 9.79476Z" fill="white" fill-opacity="0.5"/>
<path d="M43.092 8.67613C43.092 9.29393 42.5912 9.79476 41.9734 9.79476C41.3556 9.79476 40.8547 9.29393 40.8547 8.67613C40.8547 8.05832 41.3556 7.55749 41.9734 7.55749C42.5912 7.55749 43.092 8.05832 43.092 8.67613Z" fill="white" fill-opacity="0.5"/>
<path d="M48.6852 9.79476C49.303 9.79476 49.8038 9.29393 49.8038 8.67613C49.8038 8.05832 49.303 7.55749 48.6852 7.55749C48.0673 7.55749 47.5665 8.05832 47.5665 8.67613C47.5665 9.29393 48.0673 9.79476 48.6852 9.79476Z" fill="white" fill-opacity="0.5"/>
<path d="M56.5156 8.67613C56.5156 9.29393 56.0147 9.79476 55.3969 9.79476C54.7791 9.79476 54.2783 9.29393 54.2783 8.67613C54.2783 8.05832 54.7791 7.55749 55.3969 7.55749C56.0147 7.55749 56.5156 8.05832 56.5156 8.67613Z" fill="white" fill-opacity="0.5"/>
<path d="M62.1087 9.79476C62.7265 9.79476 63.2274 9.29393 63.2274 8.67613C63.2274 8.05832 62.7265 7.55749 62.1087 7.55749C61.4909 7.55749 60.9901 8.05832 60.9901 8.67613C60.9901 9.29393 61.4909 9.79476 62.1087 9.79476Z" fill="white" fill-opacity="0.5"/>
<path d="M2.82125 15.3879C2.82125 16.0057 2.32042 16.5065 1.70262 16.5065C1.08481 16.5065 0.583984 16.0057 0.583984 15.3879C0.583984 14.7701 1.08481 14.2693 1.70262 14.2693C2.32042 14.2693 2.82125 14.7701 2.82125 15.3879Z" fill="white" fill-opacity="0.5"/>
<path d="M8.41441 16.5065C9.03221 16.5065 9.53304 16.0057 9.53304 15.3879C9.53304 14.7701 9.03221 14.2693 8.41441 14.2693C7.7966 14.2693 7.29577 14.7701 7.29577 15.3879C7.29577 16.0057 7.7966 16.5065 8.41441 16.5065Z" fill="white" fill-opacity="0.5"/>
<path d="M16.2448 15.3879C16.2448 16.0057 15.744 16.5065 15.1262 16.5065C14.5084 16.5065 14.0076 16.0057 14.0076 15.3879C14.0076 14.7701 14.5084 14.2693 15.1262 14.2693C15.744 14.2693 16.2448 14.7701 16.2448 15.3879Z" fill="white" fill-opacity="0.5"/>
<path d="M21.838 16.5065C22.4558 16.5065 22.9566 16.0057 22.9566 15.3879C22.9566 14.7701 22.4558 14.2693 21.838 14.2693C21.2202 14.2693 20.7194 14.7701 20.7194 15.3879C20.7194 16.0057 21.2202 16.5065 21.838 16.5065Z" fill="white" fill-opacity="0.5"/>
<path d="M29.6684 15.3879C29.6684 16.0057 29.1676 16.5065 28.5498 16.5065C27.932 16.5065 27.4311 16.0057 27.4311 15.3879C27.4311 14.7701 27.932 14.2693 28.5498 14.2693C29.1676 14.2693 29.6684 14.7701 29.6684 15.3879Z" fill="white" fill-opacity="0.5"/>
<path d="M35.2616 16.5065C35.8794 16.5065 36.3802 16.0057 36.3802 15.3879C36.3802 14.7701 35.8794 14.2693 35.2616 14.2693C34.6438 14.2693 34.1429 14.7701 34.1429 15.3879C34.1429 16.0057 34.6438 16.5065 35.2616 16.5065Z" fill="white" fill-opacity="0.5"/>
<path d="M43.092 15.3879C43.092 16.0057 42.5912 16.5065 41.9734 16.5065C41.3556 16.5065 40.8547 16.0057 40.8547 15.3879C40.8547 14.7701 41.3556 14.2693 41.9734 14.2693C42.5912 14.2693 43.092 14.7701 43.092 15.3879Z" fill="white" fill-opacity="0.5"/>
<path d="M48.6852 16.5065C49.303 16.5065 49.8038 16.0057 49.8038 15.3879C49.8038 14.7701 49.303 14.2693 48.6852 14.2693C48.0673 14.2693 47.5665 14.7701 47.5665 15.3879C47.5665 16.0057 48.0673 16.5065 48.6852 16.5065Z" fill="white" fill-opacity="0.5"/>
<path d="M56.5156 15.3879C56.5156 16.0057 56.0147 16.5065 55.3969 16.5065C54.7791 16.5065 54.2783 16.0057 54.2783 15.3879C54.2783 14.7701 54.7791 14.2693 55.3969 14.2693C56.0147 14.2693 56.5156 14.7701 56.5156 15.3879Z" fill="white" fill-opacity="0.5"/>
<path d="M62.1087 16.5065C62.7265 16.5065 63.2274 16.0057 63.2274 15.3879C63.2274 14.7701 62.7265 14.2693 62.1087 14.2693C61.4909 14.2693 60.9901 14.7701 60.9901 15.3879C60.9901 16.0057 61.4909 16.5065 62.1087 16.5065Z" fill="white" fill-opacity="0.5"/>
<path d="M2.82125 22.0997C2.82125 22.7175 2.32042 23.2183 1.70262 23.2183C1.08481 23.2183 0.583984 22.7175 0.583984 22.0997C0.583984 21.4819 1.08481 20.9811 1.70262 20.9811C2.32042 20.9811 2.82125 21.4819 2.82125 22.0997Z" fill="white" fill-opacity="0.5"/>
<path d="M8.41441 23.2183C9.03221 23.2183 9.53304 22.7175 9.53304 22.0997C9.53304 21.4819 9.03221 20.9811 8.41441 20.9811C7.7966 20.9811 7.29577 21.4819 7.29577 22.0997C7.29577 22.7175 7.7966 23.2183 8.41441 23.2183Z" fill="white" fill-opacity="0.5"/>
<path d="M16.2448 22.0997C16.2448 22.7175 15.744 23.2183 15.1262 23.2183C14.5084 23.2183 14.0076 22.7175 14.0076 22.0997C14.0076 21.4819 14.5084 20.9811 15.1262 20.9811C15.744 20.9811 16.2448 21.4819 16.2448 22.0997Z" fill="white" fill-opacity="0.5"/>
<path d="M21.838 23.2183C22.4558 23.2183 22.9566 22.7175 22.9566 22.0997C22.9566 21.4819 22.4558 20.9811 21.838 20.9811C21.2202 20.9811 20.7194 21.4819 20.7194 22.0997C20.7194 22.7175 21.2202 23.2183 21.838 23.2183Z" fill="white" fill-opacity="0.5"/>
<path d="M29.6684 22.0997C29.6684 22.7175 29.1676 23.2183 28.5498 23.2183C27.932 23.2183 27.4311 22.7175 27.4311 22.0997C27.4311 21.4819 27.932 20.9811 28.5498 20.9811C29.1676 20.9811 29.6684 21.4819 29.6684 22.0997Z" fill="white" fill-opacity="0.5"/>
<path d="M35.2616 23.2183C35.8794 23.2183 36.3802 22.7175 36.3802 22.0997C36.3802 21.4819 35.8794 20.9811 35.2616 20.9811C34.6438 20.9811 34.1429 21.4819 34.1429 22.0997C34.1429 22.7175 34.6438 23.2183 35.2616 23.2183Z" fill="white" fill-opacity="0.5"/>
<path d="M43.092 22.0997C43.092 22.7175 42.5912 23.2183 41.9734 23.2183C41.3556 23.2183 40.8547 22.7175 40.8547 22.0997C40.8547 21.4819 41.3556 20.9811 41.9734 20.9811C42.5912 20.9811 43.092 21.4819 43.092 22.0997Z" fill="white" fill-opacity="0.5"/>
<path d="M48.6852 23.2183C49.303 23.2183 49.8038 22.7175 49.8038 22.0997C49.8038 21.4819 49.303 20.9811 48.6852 20.9811C48.0673 20.9811 47.5665 21.4819 47.5665 22.0997C47.5665 22.7175 48.0673 23.2183 48.6852 23.2183Z" fill="white" fill-opacity="0.5"/>
<path d="M56.5156 22.0997C56.5156 22.7175 56.0147 23.2183 55.3969 23.2183C54.7791 23.2183 54.2783 22.7175 54.2783 22.0997C54.2783 21.4819 54.7791 20.9811 55.3969 20.9811C56.0147 20.9811 56.5156 21.4819 56.5156 22.0997Z" fill="white" fill-opacity="0.5"/>
<path d="M62.1087 23.2183C62.7265 23.2183 63.2274 22.7175 63.2274 22.0997C63.2274 21.4819 62.7265 20.9811 62.1087 20.9811C61.4909 20.9811 60.9901 21.4819 60.9901 22.0997C60.9901 22.7175 61.4909 23.2183 62.1087 23.2183Z" fill="white" fill-opacity="0.5"/>
<path d="M2.82125 28.8115C2.82125 29.4293 2.32042 29.9301 1.70262 29.9301C1.08481 29.9301 0.583984 29.4293 0.583984 28.8115C0.583984 28.1937 1.08481 27.6929 1.70262 27.6929C2.32042 27.6929 2.82125 28.1937 2.82125 28.8115Z" fill="white" fill-opacity="0.5"/>
<path d="M8.41441 29.9301C9.03221 29.9301 9.53304 29.4293 9.53304 28.8115C9.53304 28.1937 9.03221 27.6929 8.41441 27.6929C7.7966 27.6929 7.29577 28.1937 7.29577 28.8115C7.29577 29.4293 7.7966 29.9301 8.41441 29.9301Z" fill="white" fill-opacity="0.5"/>
<path d="M16.2448 28.8115C16.2448 29.4293 15.744 29.9301 15.1262 29.9301C14.5084 29.9301 14.0076 29.4293 14.0076 28.8115C14.0076 28.1937 14.5084 27.6929 15.1262 27.6929C15.744 27.6929 16.2448 28.1937 16.2448 28.8115Z" fill="white" fill-opacity="0.5"/>
<path d="M21.838 29.9301C22.4558 29.9301 22.9566 29.4293 22.9566 28.8115C22.9566 28.1937 22.4558 27.6929 21.838 27.6929C21.2202 27.6929 20.7194 28.1937 20.7194 28.8115C20.7194 29.4293 21.2202 29.9301 21.838 29.9301Z" fill="white" fill-opacity="0.5"/>
<path d="M29.6684 28.8115C29.6684 29.4293 29.1676 29.9301 28.5498 29.9301C27.932 29.9301 27.4311 29.4293 27.4311 28.8115C27.4311 28.1937 27.932 27.6929 28.5498 27.6929C29.1676 27.6929 29.6684 28.1937 29.6684 28.8115Z" fill="white" fill-opacity="0.5"/>
<path d="M35.2616 29.9301C35.8794 29.9301 36.3802 29.4293 36.3802 28.8115C36.3802 28.1937 35.8794 27.6929 35.2616 27.6929C34.6438 27.6929 34.1429 28.1937 34.1429 28.8115C34.1429 29.4293 34.6438 29.9301 35.2616 29.9301Z" fill="white" fill-opacity="0.5"/>
<path d="M43.092 28.8115C43.092 29.4293 42.5912 29.9301 41.9734 29.9301C41.3556 29.9301 40.8547 29.4293 40.8547 28.8115C40.8547 28.1937 41.3556 27.6929 41.9734 27.6929C42.5912 27.6929 43.092 28.1937 43.092 28.8115Z" fill="white" fill-opacity="0.5"/>
<path d="M48.6852 29.9301C49.303 29.9301 49.8038 29.4293 49.8038 28.8115C49.8038 28.1937 49.303 27.6929 48.6852 27.6929C48.0673 27.6929 47.5665 28.1937 47.5665 28.8115C47.5665 29.4293 48.0673 29.9301 48.6852 29.9301Z" fill="white" fill-opacity="0.5"/>
<path d="M56.5156 28.8115C56.5156 29.4293 56.0147 29.9301 55.3969 29.9301C54.7791 29.9301 54.2783 29.4293 54.2783 28.8115C54.2783 28.1937 54.7791 27.6929 55.3969 27.6929C56.0147 27.6929 56.5156 28.1937 56.5156 28.8115Z" fill="white" fill-opacity="0.5"/>
<path d="M62.1087 29.9301C62.7265 29.9301 63.2274 29.4293 63.2274 28.8115C63.2274 28.1937 62.7265 27.6929 62.1087 27.6929C61.4909 27.6929 60.9901 28.1937 60.9901 28.8115C60.9901 29.4293 61.4909 29.9301 62.1087 29.9301Z" fill="white" fill-opacity="0.5"/>
<path d="M2.82125 35.5233C2.82125 36.1411 2.32042 36.6419 1.70262 36.6419C1.08481 36.6419 0.583984 36.1411 0.583984 35.5233C0.583984 34.9055 1.08481 34.4047 1.70262 34.4047C2.32042 34.4047 2.82125 34.9055 2.82125 35.5233Z" fill="white" fill-opacity="0.5"/>
<path d="M8.41441 36.6419C9.03221 36.6419 9.53304 36.1411 9.53304 35.5233C9.53304 34.9055 9.03221 34.4047 8.41441 34.4047C7.7966 34.4047 7.29577 34.9055 7.29577 35.5233C7.29577 36.1411 7.7966 36.6419 8.41441 36.6419Z" fill="white" fill-opacity="0.5"/>
<path d="M16.2448 35.5233C16.2448 36.1411 15.744 36.6419 15.1262 36.6419C14.5084 36.6419 14.0076 36.1411 14.0076 35.5233C14.0076 34.9055 14.5084 34.4047 15.1262 34.4047C15.744 34.4047 16.2448 34.9055 16.2448 35.5233Z" fill="white" fill-opacity="0.5"/>
<path d="M21.838 36.6419C22.4558 36.6419 22.9566 36.1411 22.9566 35.5233C22.9566 34.9055 22.4558 34.4047 21.838 34.4047C21.2202 34.4047 20.7194 34.9055 20.7194 35.5233C20.7194 36.1411 21.2202 36.6419 21.838 36.6419Z" fill="white" fill-opacity="0.5"/>
<path d="M29.6684 35.5233C29.6684 36.1411 29.1676 36.6419 28.5498 36.6419C27.932 36.6419 27.4311 36.1411 27.4311 35.5233C27.4311 34.9055 27.932 34.4047 28.5498 34.4047C29.1676 34.4047 29.6684 34.9055 29.6684 35.5233Z" fill="white" fill-opacity="0.5"/>
<path d="M35.2616 36.6419C35.8794 36.6419 36.3802 36.1411 36.3802 35.5233C36.3802 34.9055 35.8794 34.4047 35.2616 34.4047C34.6438 34.4047 34.1429 34.9055 34.1429 35.5233C34.1429 36.1411 34.6438 36.6419 35.2616 36.6419Z" fill="white" fill-opacity="0.5"/>
<path d="M43.092 35.5233C43.092 36.1411 42.5912 36.6419 41.9734 36.6419C41.3556 36.6419 40.8547 36.1411 40.8547 35.5233C40.8547 34.9055 41.3556 34.4047 41.9734 34.4047C42.5912 34.4047 43.092 34.9055 43.092 35.5233Z" fill="white" fill-opacity="0.5"/>
<path d="M48.6852 36.6419C49.303 36.6419 49.8038 36.1411 49.8038 35.5233C49.8038 34.9055 49.303 34.4047 48.6852 34.4047C48.0673 34.4047 47.5665 34.9055 47.5665 35.5233C47.5665 36.1411 48.0673 36.6419 48.6852 36.6419Z" fill="white" fill-opacity="0.5"/>
<path d="M56.5156 35.5233C56.5156 36.1411 56.0147 36.6419 55.3969 36.6419C54.7791 36.6419 54.2783 36.1411 54.2783 35.5233C54.2783 34.9055 54.7791 34.4047 55.3969 34.4047C56.0147 34.4047 56.5156 34.9055 56.5156 35.5233Z" fill="white" fill-opacity="0.5"/>
<path d="M62.1087 36.6419C62.7265 36.6419 63.2274 36.1411 63.2274 35.5233C63.2274 34.9055 62.7265 34.4047 62.1087 34.4047C61.4909 34.4047 60.9901 34.9055 60.9901 35.5233C60.9901 36.1411 61.4909 36.6419 62.1087 36.6419Z" fill="white" fill-opacity="0.5"/>
<path d="M2.82125 42.2351C2.82125 42.8529 2.32042 43.3537 1.70262 43.3537C1.08481 43.3537 0.583984 42.8529 0.583984 42.2351C0.583984 41.6173 1.08481 41.1164 1.70262 41.1164C2.32042 41.1164 2.82125 41.6173 2.82125 42.2351Z" fill="white" fill-opacity="0.5"/>
<path d="M8.41441 43.3537C9.03221 43.3537 9.53304 42.8529 9.53304 42.2351C9.53304 41.6173 9.03221 41.1164 8.41441 41.1164C7.7966 41.1164 7.29577 41.6173 7.29577 42.2351C7.29577 42.8529 7.7966 43.3537 8.41441 43.3537Z" fill="white" fill-opacity="0.5"/>
<path d="M16.2448 42.2351C16.2448 42.8529 15.744 43.3537 15.1262 43.3537C14.5084 43.3537 14.0076 42.8529 14.0076 42.2351C14.0076 41.6173 14.5084 41.1164 15.1262 41.1164C15.744 41.1164 16.2448 41.6173 16.2448 42.2351Z" fill="white" fill-opacity="0.5"/>
<path d="M21.838 43.3537C22.4558 43.3537 22.9566 42.8529 22.9566 42.2351C22.9566 41.6173 22.4558 41.1164 21.838 41.1164C21.2202 41.1164 20.7194 41.6173 20.7194 42.2351C20.7194 42.8529 21.2202 43.3537 21.838 43.3537Z" fill="white" fill-opacity="0.5"/>
<path d="M29.6684 42.2351C29.6684 42.8529 29.1676 43.3537 28.5498 43.3537C27.932 43.3537 27.4311 42.8529 27.4311 42.2351C27.4311 41.6173 27.932 41.1164 28.5498 41.1164C29.1676 41.1164 29.6684 41.6173 29.6684 42.2351Z" fill="white" fill-opacity="0.5"/>
<path d="M35.2616 43.3537C35.8794 43.3537 36.3802 42.8529 36.3802 42.2351C36.3802 41.6173 35.8794 41.1164 35.2616 41.1164C34.6438 41.1164 34.1429 41.6173 34.1429 42.2351C34.1429 42.8529 34.6438 43.3537 35.2616 43.3537Z" fill="white" fill-opacity="0.5"/>
<path d="M43.092 42.2351C43.092 42.8529 42.5912 43.3537 41.9734 43.3537C41.3556 43.3537 40.8547 42.8529 40.8547 42.2351C40.8547 41.6173 41.3556 41.1164 41.9734 41.1164C42.5912 41.1164 43.092 41.6173 43.092 42.2351Z" fill="white" fill-opacity="0.5"/>
<path d="M48.6852 43.3537C49.303 43.3537 49.8038 42.8529 49.8038 42.2351C49.8038 41.6173 49.303 41.1164 48.6852 41.1164C48.0673 41.1164 47.5665 41.6173 47.5665 42.2351C47.5665 42.8529 48.0673 43.3537 48.6852 43.3537Z" fill="white" fill-opacity="0.5"/>
<path d="M56.5156 42.2351C56.5156 42.8529 56.0147 43.3537 55.3969 43.3537C54.7791 43.3537 54.2783 42.8529 54.2783 42.2351C54.2783 41.6173 54.7791 41.1164 55.3969 41.1164C56.0147 41.1164 56.5156 41.6173 56.5156 42.2351Z" fill="white" fill-opacity="0.5"/>
<path d="M62.1087 43.3537C62.7265 43.3537 63.2274 42.8529 63.2274 42.2351C63.2274 41.6173 62.7265 41.1164 62.1087 41.1164C61.4909 41.1164 60.9901 41.6173 60.9901 42.2351C60.9901 42.8529 61.4909 43.3537 62.1087 43.3537Z" fill="white" fill-opacity="0.5"/>
<path d="M2.82125 48.9469C2.82125 49.5647 2.32042 50.0655 1.70262 50.0655C1.08481 50.0655 0.583984 49.5647 0.583984 48.9469C0.583984 48.3291 1.08481 47.8282 1.70262 47.8282C2.32042 47.8282 2.82125 48.3291 2.82125 48.9469Z" fill="white" fill-opacity="0.5"/>
<path d="M8.41441 50.0655C9.03221 50.0655 9.53304 49.5647 9.53304 48.9469C9.53304 48.3291 9.03221 47.8282 8.41441 47.8282C7.7966 47.8282 7.29577 48.3291 7.29577 48.9469C7.29577 49.5647 7.7966 50.0655 8.41441 50.0655Z" fill="white" fill-opacity="0.5"/>
<path d="M16.2448 48.9469C16.2448 49.5647 15.744 50.0655 15.1262 50.0655C14.5084 50.0655 14.0076 49.5647 14.0076 48.9469C14.0076 48.3291 14.5084 47.8282 15.1262 47.8282C15.744 47.8282 16.2448 48.3291 16.2448 48.9469Z" fill="white" fill-opacity="0.5"/>
<path d="M21.838 50.0655C22.4558 50.0655 22.9566 49.5647 22.9566 48.9469C22.9566 48.3291 22.4558 47.8282 21.838 47.8282C21.2202 47.8282 20.7194 48.3291 20.7194 48.9469C20.7194 49.5647 21.2202 50.0655 21.838 50.0655Z" fill="white" fill-opacity="0.5"/>
<path d="M29.6684 48.9469C29.6684 49.5647 29.1676 50.0655 28.5498 50.0655C27.932 50.0655 27.4311 49.5647 27.4311 48.9469C27.4311 48.3291 27.932 47.8282 28.5498 47.8282C29.1676 47.8282 29.6684 48.3291 29.6684 48.9469Z" fill="white" fill-opacity="0.5"/>
<path d="M35.2616 50.0655C35.8794 50.0655 36.3802 49.5647 36.3802 48.9469C36.3802 48.3291 35.8794 47.8282 35.2616 47.8282C34.6438 47.8282 34.1429 48.3291 34.1429 48.9469C34.1429 49.5647 34.6438 50.0655 35.2616 50.0655Z" fill="white" fill-opacity="0.5"/>
<path d="M43.092 48.9469C43.092 49.5647 42.5912 50.0655 41.9734 50.0655C41.3556 50.0655 40.8547 49.5647 40.8547 48.9469C40.8547 48.3291 41.3556 47.8282 41.9734 47.8282C42.5912 47.8282 43.092 48.3291 43.092 48.9469Z" fill="white" fill-opacity="0.5"/>
<path d="M48.6852 50.0655C49.303 50.0655 49.8038 49.5647 49.8038 48.9469C49.8038 48.3291 49.303 47.8282 48.6852 47.8282C48.0673 47.8282 47.5665 48.3291 47.5665 48.9469C47.5665 49.5647 48.0673 50.0655 48.6852 50.0655Z" fill="white" fill-opacity="0.5"/>
<path d="M56.5156 48.9469C56.5156 49.5647 56.0147 50.0655 55.3969 50.0655C54.7791 50.0655 54.2783 49.5647 54.2783 48.9469C54.2783 48.3291 54.7791 47.8282 55.3969 47.8282C56.0147 47.8282 56.5156 48.3291 56.5156 48.9469Z" fill="white" fill-opacity="0.5"/>
<path d="M62.1087 50.0655C62.7265 50.0655 63.2274 49.5647 63.2274 48.9469C63.2274 48.3291 62.7265 47.8282 62.1087 47.8282C61.4909 47.8282 60.9901 48.3291 60.9901 48.9469C60.9901 49.5647 61.4909 50.0655 62.1087 50.0655Z" fill="white" fill-opacity="0.5"/>
<path d="M2.82125 55.6587C2.82125 56.2765 2.32042 56.7773 1.70262 56.7773C1.08481 56.7773 0.583984 56.2765 0.583984 55.6587C0.583984 55.0409 1.08481 54.54 1.70262 54.54C2.32042 54.54 2.82125 55.0409 2.82125 55.6587Z" fill="white" fill-opacity="0.5"/>
<path d="M8.41441 56.7773C9.03221 56.7773 9.53304 56.2765 9.53304 55.6587C9.53304 55.0409 9.03221 54.54 8.41441 54.54C7.7966 54.54 7.29577 55.0409 7.29577 55.6587C7.29577 56.2765 7.7966 56.7773 8.41441 56.7773Z" fill="white" fill-opacity="0.5"/>
<path d="M16.2448 55.6587C16.2448 56.2765 15.744 56.7773 15.1262 56.7773C14.5084 56.7773 14.0076 56.2765 14.0076 55.6587C14.0076 55.0409 14.5084 54.54 15.1262 54.54C15.744 54.54 16.2448 55.0409 16.2448 55.6587Z" fill="white" fill-opacity="0.5"/>
<path d="M21.838 56.7773C22.4558 56.7773 22.9566 56.2765 22.9566 55.6587C22.9566 55.0409 22.4558 54.54 21.838 54.54C21.2202 54.54 20.7194 55.0409 20.7194 55.6587C20.7194 56.2765 21.2202 56.7773 21.838 56.7773Z" fill="white" fill-opacity="0.5"/>
<path d="M29.6684 55.6587C29.6684 56.2765 29.1676 56.7773 28.5498 56.7773C27.932 56.7773 27.4311 56.2765 27.4311 55.6587C27.4311 55.0409 27.932 54.54 28.5498 54.54C29.1676 54.54 29.6684 55.0409 29.6684 55.6587Z" fill="white" fill-opacity="0.5"/>
<path d="M35.2616 56.7773C35.8794 56.7773 36.3802 56.2765 36.3802 55.6587C36.3802 55.0409 35.8794 54.54 35.2616 54.54C34.6438 54.54 34.1429 55.0409 34.1429 55.6587C34.1429 56.2765 34.6438 56.7773 35.2616 56.7773Z" fill="white" fill-opacity="0.5"/>
<path d="M43.092 55.6587C43.092 56.2765 42.5912 56.7773 41.9734 56.7773C41.3556 56.7773 40.8547 56.2765 40.8547 55.6587C40.8547 55.0409 41.3556 54.54 41.9734 54.54C42.5912 54.54 43.092 55.0409 43.092 55.6587Z" fill="white" fill-opacity="0.5"/>
<path d="M48.6852 56.7773C49.303 56.7773 49.8038 56.2765 49.8038 55.6587C49.8038 55.0409 49.303 54.54 48.6852 54.54C48.0673 54.54 47.5665 55.0409 47.5665 55.6587C47.5665 56.2765 48.0673 56.7773 48.6852 56.7773Z" fill="white" fill-opacity="0.5"/>
<path d="M56.5156 55.6587C56.5156 56.2765 56.0147 56.7773 55.3969 56.7773C54.7791 56.7773 54.2783 56.2765 54.2783 55.6587C54.2783 55.0409 54.7791 54.54 55.3969 54.54C56.0147 54.54 56.5156 55.0409 56.5156 55.6587Z" fill="white" fill-opacity="0.5"/>
<path d="M62.1087 56.7773C62.7265 56.7773 63.2274 56.2765 63.2274 55.6587C63.2274 55.0409 62.7265 54.54 62.1087 54.54C61.4909 54.54 60.9901 55.0409 60.9901 55.6587C60.9901 56.2765 61.4909 56.7773 62.1087 56.7773Z" fill="white" fill-opacity="0.5"/>
<path d="M2.82125 62.3704C2.82125 62.9883 2.32042 63.4891 1.70262 63.4891C1.08481 63.4891 0.583984 62.9883 0.583984 62.3704C0.583984 61.7526 1.08481 61.2518 1.70262 61.2518C2.32042 61.2518 2.82125 61.7526 2.82125 62.3704Z" fill="white" fill-opacity="0.5"/>
<path d="M8.41441 63.4891C9.03221 63.4891 9.53304 62.9883 9.53304 62.3704C9.53304 61.7526 9.03221 61.2518 8.41441 61.2518C7.7966 61.2518 7.29577 61.7526 7.29577 62.3704C7.29577 62.9883 7.7966 63.4891 8.41441 63.4891Z" fill="white" fill-opacity="0.5"/>
<path d="M16.2448 62.3704C16.2448 62.9883 15.744 63.4891 15.1262 63.4891C14.5084 63.4891 14.0076 62.9883 14.0076 62.3704C14.0076 61.7526 14.5084 61.2518 15.1262 61.2518C15.744 61.2518 16.2448 61.7526 16.2448 62.3704Z" fill="white" fill-opacity="0.5"/>
<path d="M21.838 63.4891C22.4558 63.4891 22.9566 62.9883 22.9566 62.3704C22.9566 61.7526 22.4558 61.2518 21.838 61.2518C21.2202 61.2518 20.7194 61.7526 20.7194 62.3704C20.7194 62.9883 21.2202 63.4891 21.838 63.4891Z" fill="white" fill-opacity="0.5"/>
<path d="M29.6684 62.3704C29.6684 62.9883 29.1676 63.4891 28.5498 63.4891C27.932 63.4891 27.4311 62.9883 27.4311 62.3704C27.4311 61.7526 27.932 61.2518 28.5498 61.2518C29.1676 61.2518 29.6684 61.7526 29.6684 62.3704Z" fill="white" fill-opacity="0.5"/>
<path d="M35.2616 63.4891C35.8794 63.4891 36.3802 62.9883 36.3802 62.3704C36.3802 61.7526 35.8794 61.2518 35.2616 61.2518C34.6438 61.2518 34.1429 61.7526 34.1429 62.3704C34.1429 62.9883 34.6438 63.4891 35.2616 63.4891Z" fill="white" fill-opacity="0.5"/>
<path d="M43.092 62.3704C43.092 62.9883 42.5912 63.4891 41.9734 63.4891C41.3556 63.4891 40.8547 62.9883 40.8547 62.3704C40.8547 61.7526 41.3556 61.2518 41.9734 61.2518C42.5912 61.2518 43.092 61.7526 43.092 62.3704Z" fill="white" fill-opacity="0.5"/>
<path d="M48.6852 63.4891C49.303 63.4891 49.8038 62.9883 49.8038 62.3704C49.8038 61.7526 49.303 61.2518 48.6852 61.2518C48.0673 61.2518 47.5665 61.7526 47.5665 62.3704C47.5665 62.9883 48.0673 63.4891 48.6852 63.4891Z" fill="white" fill-opacity="0.5"/>
<path d="M56.5156 62.3704C56.5156 62.9883 56.0147 63.4891 55.3969 63.4891C54.7791 63.4891 54.2783 62.9883 54.2783 62.3704C54.2783 61.7526 54.7791 61.2518 55.3969 61.2518C56.0147 61.2518 56.5156 61.7526 56.5156 62.3704Z" fill="white" fill-opacity="0.5"/>
<path d="M62.1087 63.4891C62.7265 63.4891 63.2274 62.9883 63.2274 62.3704C63.2274 61.7526 62.7265 61.2518 62.1087 61.2518C61.4909 61.2518 60.9901 61.7526 60.9901 62.3704C60.9901 62.9883 61.4909 63.4891 62.1087 63.4891Z" fill="white" fill-opacity="0.5"/>
</svg>
