<svg width="38" height="41" viewBox="0 0 38 41" fill="none" xmlns="http://www.w3.org/2000/svg">
<path fillRule="evenodd" clipRule="evenodd" d="M17.5269 1.36019C18.3405 0.546602 19.6595 0.546602 20.4731 1.36019L30.8898 11.7769C31.7034 12.5905 31.7034 13.9095 30.8898 14.7231C30.0762 15.5367 28.7571 15.5367 27.9435 14.7231L21.0833 7.86294V27.8333C21.0833 28.9839 20.1506 29.9167 19 29.9167C17.8494 29.9167 16.9167 28.9839 16.9167 27.8333V7.86294L10.0565 14.7231C9.24288 15.5367 7.92379 15.5367 7.11019 14.7231C6.2966 13.9095 6.2966 12.5905 7.11019 11.7769L17.5269 1.36019ZM2.33333 27.8333C3.48393 27.8333 4.41667 28.7661 4.41667 29.9167V34.0833C4.41667 34.6359 4.63616 35.1658 5.02686 35.5565C5.41756 35.9472 5.94747 36.1667 6.5 36.1667H31.5C32.0525 36.1667 32.5824 35.9472 32.9731 35.5565C33.3638 35.1658 33.5833 34.6359 33.5833 34.0833V29.9167C33.5833 28.7661 34.5161 27.8333 35.6667 27.8333C36.8173 27.8333 37.75 28.7661 37.75 29.9167V34.0833C37.75 35.7409 37.0915 37.3307 35.9194 38.5028C34.7473 39.6749 33.1576 40.3333 31.5 40.3333H6.5C4.8424 40.3333 3.25268 39.6749 2.08058 38.5028C0.90848 37.3306 0.25 35.7409 0.25 34.0833V29.9167C0.25 28.7661 1.18274 27.8333 2.33333 27.8333Z" fill="#D7D7D7"/>
</svg>
