<svg width="969" height="174" viewBox="0 0 969 174" fill="none" xmlns="http://www.w3.org/2000/svg">
    <g opacity="0.2">
        <path d="M954.948 129.167V135.833H961.615L954.948 129.167Z" fill="white"/>
        <path d="M951.159 143.105H947.372V140.984H951.161V143.107L951.159 143.105Z" fill="white"/>
        <path d="M956.462 140.984H952.673V143.107H956.462V140.984Z" fill="white"/>
        <path d="M956.462 144.621H952.673V146.743H956.462V144.621Z" fill="white"/>
        <path d="M947.372 144.621V146.743H951.161V144.621H947.372Z" fill="white"/>
        <path fill-rule="evenodd" clip-rule="evenodd"
              d="M961.613 136.389V154.015C961.613 155.02 960.8 155.833 959.796 155.833H944.038C943.799 155.833 943.563 155.786 943.342 155.695C943.122 155.603 942.921 155.47 942.752 155.301C942.412 154.96 942.22 154.497 942.22 154.015V130.984C942.22 129.98 943.033 129.167 944.038 129.167H954.391V136.389H961.613ZM957.977 139.47H945.856V148.258H957.978V139.469L957.977 139.47Z"
              fill="white"/>
        <path fill-rule="evenodd" clip-rule="evenodd"
              d="M842.037 105.278C839.926 104.294 837.64 103.579 835.259 103.167C835.238 103.166 835.218 103.17 835.198 103.178C835.179 103.186 835.162 103.199 835.148 103.214C834.862 103.738 834.529 104.421 834.307 104.944C831.781 104.563 829.213 104.563 826.688 104.944C826.465 104.405 826.132 103.738 825.83 103.214C825.814 103.182 825.767 103.167 825.719 103.167C823.338 103.579 821.068 104.294 818.941 105.278C818.925 105.278 818.91 105.294 818.894 105.309C814.576 111.77 813.386 118.056 813.973 124.278C813.973 124.31 813.989 124.341 814.021 124.357C816.878 126.452 819.624 127.722 822.338 128.564C822.386 128.579 822.433 128.564 822.449 128.532C823.084 127.659 823.656 126.738 824.148 125.77C824.18 125.706 824.148 125.643 824.084 125.627C823.179 125.278 822.322 124.865 821.481 124.389C821.418 124.357 821.418 124.262 821.465 124.214C821.64 124.087 821.814 123.944 821.989 123.817C822.021 123.786 822.068 123.786 822.1 123.802C827.561 126.294 833.45 126.294 838.847 123.802C838.878 123.786 838.926 123.786 838.958 123.817C839.132 123.96 839.307 124.087 839.482 124.23C839.545 124.278 839.545 124.373 839.466 124.405C838.64 124.897 837.767 125.294 836.862 125.643C836.799 125.659 836.783 125.738 836.799 125.786C837.307 126.754 837.878 127.675 838.497 128.548C838.545 128.564 838.593 128.579 838.64 128.564C841.37 127.722 844.117 126.452 846.974 124.357C847.006 124.341 847.021 124.31 847.021 124.278C847.72 117.087 845.863 110.849 842.101 105.309C842.085 105.294 842.069 105.278 842.037 105.278ZM824.973 120.484C823.338 120.484 821.973 118.976 821.973 117.119C821.973 115.262 823.306 113.754 824.973 113.754C826.656 113.754 827.989 115.278 827.973 117.119C827.973 118.976 826.64 120.484 824.973 120.484ZM836.037 120.484C834.402 120.484 833.037 118.976 833.037 117.119C833.037 115.262 834.37 113.754 836.037 113.754C837.72 113.754 839.053 115.278 839.037 117.119C839.037 118.976 837.72 120.484 836.037 120.484Z"
              fill="white"/>
        <path d="M871.333 14.5664V30.0211C871.333 31.0256 870.52 31.8389 869.516 31.8389H865.272V21.5365L858 26.9921L850.728 21.5365V31.84H846.484C846.246 31.84 846.009 31.793 845.789 31.7015C845.568 31.6101 845.368 31.4761 845.199 31.3072C845.03 31.1383 844.896 30.9378 844.805 30.7171C844.713 30.4964 844.667 30.2599 844.667 30.0211V14.5664C844.667 12.3185 847.232 11.0352 849.03 12.3841L858 19.112L866.97 12.3841C868.767 11.0363 871.333 12.3185 871.333 14.5664Z"
              fill="white"/>
        <path d="M219 12.7469C219 7.22388 223.478 2.74707 229 2.74707C234.522 2.74707 239 7.22421 239 12.7469C239 17.1636 236.138 20.9107 232.167 22.2344C231.66 22.3326 231.48 22.0208 231.48 21.7547C231.48 21.6455 231.481 21.454 231.483 21.1981C231.487 20.6824 231.492 19.9048 231.492 19.0105C231.492 18.0777 231.172 17.469 230.813 17.1586C233.04 16.9109 235.379 16.0654 235.379 12.2246C235.379 11.1329 234.991 10.2408 234.35 9.54036C234.454 9.28866 234.796 8.27142 234.252 6.89419C234.252 6.89419 233.414 6.62543 231.505 7.91921C230.706 7.69748 229.849 7.58636 229 7.58256C228.15 7.58636 227.294 7.69781 226.496 7.91954C224.586 6.62576 223.746 6.89452 223.746 6.89452C223.203 8.27192 223.545 9.28899 223.649 9.54069C223.01 10.2412 222.619 11.1332 222.619 12.225C222.619 16.0566 224.954 16.9142 227.175 17.1668C226.889 17.4165 226.63 17.8578 226.54 18.5041C225.969 18.7594 224.522 19.2012 223.63 17.6728C223.63 17.6728 223.101 16.7127 222.097 16.6423C222.097 16.6423 221.121 16.6294 222.029 17.25C222.029 17.25 222.684 17.5574 223.139 18.7132C223.139 18.7132 223.726 20.498 226.508 19.8931C226.51 20.3472 226.514 20.7872 226.517 21.1326C226.52 21.4227 226.522 21.646 226.522 21.7548C226.522 22.019 226.338 22.3286 225.839 22.2359C221.865 20.9135 219 17.1653 219 12.7469Z"
              fill="white"/>
        <path d="M222.616 17.1345C222.687 17.1684 222.765 17.1535 222.787 17.1038C222.813 17.0542 222.771 16.9859 222.698 16.9533C222.626 16.919 222.548 16.9331 222.526 16.9845C222.503 17.0343 222.543 17.102 222.616 17.1345Z"
              fill="white"/>
        <path d="M222.988 17.5094C223.052 17.5794 223.145 17.6 223.193 17.5557C223.243 17.5109 223.23 17.4186 223.165 17.3481C223.099 17.2785 223.009 17.2577 222.959 17.3017C222.911 17.3466 222.923 17.4398 222.988 17.5094Z"
              fill="white"/>
        <path d="M223.363 18.0454C223.425 18.1343 223.526 18.1742 223.587 18.1315C223.65 18.0881 223.65 17.9812 223.589 17.8909C223.526 17.8028 223.427 17.7642 223.365 17.807C223.302 17.8495 223.302 17.9563 223.363 18.0454Z"
              fill="white"/>
        <path d="M223.87 18.65C223.955 18.7323 224.072 18.7485 224.127 18.6881C224.185 18.628 224.159 18.5129 224.072 18.4324C223.986 18.3506 223.869 18.3337 223.813 18.3943C223.758 18.4546 223.783 18.5693 223.87 18.65Z"
              fill="white"/>
        <path d="M224.622 19.0916C224.736 19.1251 224.848 19.0895 224.872 19.0111C224.896 18.9315 224.822 18.8404 224.709 18.8063C224.594 18.7707 224.481 18.8076 224.458 18.8866C224.435 18.9658 224.509 19.0573 224.622 19.0916Z"
              fill="white"/>
        <path d="M225.479 19.2233C225.597 19.2216 225.693 19.1534 225.691 19.0709C225.691 18.9893 225.593 18.9229 225.475 18.925C225.355 18.9274 225.261 18.9948 225.261 19.078C225.262 19.1592 225.359 19.2261 225.479 19.2233Z"
              fill="white"/>
        <path d="M226.266 19.1264C226.384 19.1044 226.466 19.0217 226.452 18.9414C226.437 18.8598 226.331 18.8114 226.213 18.8318C226.097 18.8532 226.013 18.9358 226.027 19.0183C226.042 19.0979 226.15 19.1479 226.266 19.1264Z"
              fill="white"/>
        <path d="M716.484 10.7469C716.065 11.1344 715.544 11.3953 714.983 11.4993V10.5418C714.983 9.38059 714.041 8.43934 712.88 8.43934H711.408C711.424 7.86851 711.601 7.31392 711.919 6.83969C712.238 6.36547 712.683 5.99099 713.206 5.75955C713.728 5.52812 714.304 5.44919 714.87 5.53189C715.435 5.61459 715.965 5.85555 716.398 6.22689C716.832 6.59823 717.152 7.08479 717.321 7.6303C717.49 8.17581 717.501 8.75799 717.353 9.30951C717.205 9.86103 716.904 10.3594 716.484 10.7469Z"
              fill="white"/>
        <path d="M709.615 21.1718H709.614V21.1693C709.614 21.1701 709.615 21.171 709.615 21.1718Z" fill="white"/>
        <path d="M709.615 21.1718C710.449 22.8704 712.176 24.0568 714.198 24.1068C715.587 24.0727 716.907 23.4884 717.866 22.4823C718.825 21.4761 719.346 20.1303 719.314 18.7405V13.3731C719.319 13.1414 719.232 12.9171 719.073 12.7493C718.913 12.5815 718.693 12.484 718.461 12.4781H714.983V19.0693C714.983 20.2305 714.041 21.1718 712.88 21.1718H709.615Z"
              fill="white"/>
        <path d="M722.876 10.2578C722.981 10.0039 723.035 9.73171 723.035 9.45684C723.035 8.90171 722.814 8.36932 722.422 7.97678C722.029 7.58425 721.497 7.36372 720.942 7.36372C720.387 7.36372 719.854 7.58425 719.462 7.97678C719.069 8.36932 718.849 8.90171 718.849 9.45684C718.849 9.73171 718.903 10.0039 719.008 10.2578C719.113 10.5118 719.268 10.7425 719.462 10.9369C719.656 11.1313 719.887 11.2854 720.141 11.3906C720.395 11.4958 720.667 11.55 720.942 11.55C721.217 11.55 721.489 11.4958 721.743 11.3906C721.997 11.2854 722.228 11.1313 722.422 10.9369C722.616 10.7425 722.77 10.5118 722.876 10.2578Z"
              fill="white"/>
        <path d="M720.238 21.3168H720.253C721.114 21.3168 721.94 20.9746 722.549 20.3656C723.158 19.7566 723.5 18.9306 723.5 18.0693V13.3631C723.5 12.8756 723.104 12.4793 722.616 12.4793H720.376C720.505 12.7639 720.569 13.0734 720.564 13.3856V18.7268C720.583 19.6128 720.421 20.4934 720.088 21.3143C720.138 21.3168 720.188 21.3168 720.238 21.3168Z"
              fill="white"/>
        <path fill-rule="evenodd" clip-rule="evenodd"
              d="M712.88 9.68906H704.352C703.881 9.68906 703.5 10.0691 703.5 10.5403V19.069C703.5 19.181 703.522 19.2918 703.565 19.3952C703.608 19.4987 703.671 19.5927 703.75 19.6718C703.829 19.751 703.923 19.8138 704.026 19.8566C704.13 19.8995 704.241 19.9215 704.352 19.9215H712.88C713.106 19.9215 713.323 19.8317 713.483 19.6718C713.643 19.5119 713.732 19.2951 713.732 19.069V10.5416C713.732 10.0703 713.351 9.68906 712.88 9.68906ZM710.86 12.034V12.934H709.156V17.5778H708.069V12.934H706.372V12.034H710.86Z"
              fill="white"/>
        <path fill-rule="evenodd" clip-rule="evenodd"
              d="M55.5015 10.5C63.786 10.5 70.5015 17.2155 70.5015 25.5C70.5015 33.7845 63.786 40.5 55.5015 40.5C52.8507 40.5043 50.2465 39.8028 47.9565 38.4675L40.5075 40.5L42.5355 33.048C41.1991 30.7573 40.4971 28.152 40.5015 25.5C40.5015 17.2155 47.217 10.5 55.5015 10.5ZM50.3895 18.45L50.0895 18.462C49.8953 18.4738 49.7055 18.5249 49.5315 18.612C49.3688 18.7041 49.2202 18.8193 49.0905 18.954C48.9105 19.1235 48.8085 19.2705 48.699 19.413C48.1442 20.1344 47.8454 21.02 47.85 21.93C47.853 22.665 48.045 23.3805 48.345 24.0495C48.9585 25.4025 49.968 26.835 51.3 28.1625C51.621 28.482 51.936 28.803 52.275 29.1015C53.9301 30.5587 55.9024 31.6096 58.035 32.1705L58.887 32.301C59.1645 32.316 59.442 32.295 59.721 32.2815C60.1578 32.2589 60.5844 32.1407 60.9705 31.935C61.1669 31.8338 61.3586 31.7237 61.545 31.605C61.545 31.605 61.6095 31.563 61.7325 31.47C61.935 31.32 62.0595 31.2135 62.2275 31.038C62.352 30.909 62.46 30.7575 62.5425 30.585C62.6595 30.3405 62.7765 29.874 62.8245 29.4855C62.8605 29.1885 62.85 29.0265 62.8455 28.926C62.8395 28.7655 62.706 28.599 62.5605 28.5285L61.6875 28.137C61.6875 28.137 60.3825 27.5685 59.5845 27.2055C59.501 27.169 59.4115 27.1482 59.3205 27.144C59.2179 27.1335 59.1142 27.145 59.0164 27.1779C58.9186 27.2107 58.8289 27.2641 58.7535 27.3345C58.746 27.3315 58.6455 27.417 57.561 28.731C57.4987 28.8146 57.413 28.8779 57.3147 28.9126C57.2164 28.9473 57.11 28.952 57.009 28.926C56.9113 28.8998 56.8155 28.8667 56.7225 28.827C56.5365 28.749 56.472 28.719 56.3445 28.665C55.4836 28.2893 54.6865 27.7817 53.982 27.1605C53.793 26.9955 53.6175 26.8155 53.4375 26.6415C52.8474 26.0763 52.3331 25.437 51.9075 24.7395L51.819 24.597C51.7554 24.5012 51.704 24.398 51.666 24.2895C51.609 24.069 51.7575 23.892 51.7575 23.892C51.7575 23.892 52.122 23.493 52.2915 23.277C52.4565 23.067 52.596 22.863 52.686 22.7175C52.863 22.4325 52.9185 22.14 52.8255 21.9135C52.4055 20.8875 51.9705 19.866 51.5235 18.852C51.435 18.651 51.1725 18.507 50.934 18.4785C50.853 18.4695 50.772 18.4605 50.691 18.4545C50.4895 18.4445 50.2877 18.4465 50.0865 18.4605L50.388 18.4485L50.3895 18.45Z"
              fill="white"/>
        <path fill-rule="evenodd" clip-rule="evenodd"
              d="M8.71619 121.715C11.8386 118.591 16.0808 116.833 20.5 116.833C24.9193 116.833 29.1615 118.591 32.2839 121.715C35.4089 124.839 37.1667 129.082 37.1667 133.5C37.1667 137.919 35.4089 142.161 32.2839 145.285C29.1615 148.41 24.9193 150.167 20.5 150.167C16.0808 150.167 11.8386 148.41 8.71619 145.285C5.59119 142.161 3.83337 137.919 3.83337 133.5C3.83424 129.08 5.59057 124.841 8.71619 121.715ZM21.0963 129.137C19.4765 129.811 16.2369 131.207 11.3776 133.324C10.5885 133.637 10.1744 133.944 10.138 134.244C10.0739 134.751 10.7086 134.951 11.571 135.223C11.6893 135.26 11.8118 135.299 11.9375 135.339C12.789 135.616 13.9349 135.94 14.5286 135.952C15.0703 135.964 15.6718 135.742 16.3359 135.285C20.8776 132.22 23.2187 130.671 23.3672 130.638C23.4713 130.615 23.6145 130.585 23.7109 130.672C23.8099 130.758 23.7994 130.922 23.789 130.966C23.7276 131.234 21.2438 133.543 19.9513 134.745C19.545 135.123 19.2564 135.391 19.1979 135.452C19.0671 135.588 18.9337 135.716 18.8055 135.84C18.0152 136.602 17.4223 137.173 18.8385 138.106C19.5252 138.559 20.0732 138.932 20.621 139.305C21.2096 139.706 21.7978 140.107 22.5573 140.605C22.7526 140.733 22.939 140.866 23.1206 140.995C23.8109 141.487 24.4309 141.929 25.1979 141.859C25.6432 141.818 26.1041 141.399 26.3359 140.15C26.888 137.198 27.9739 130.803 28.2239 128.168C28.2474 127.937 28.2187 127.641 28.1979 127.512C28.1744 127.382 28.1276 127.197 27.9609 127.06C27.7604 126.898 27.4531 126.864 27.3151 126.866C26.6875 126.877 25.7265 127.212 21.0963 129.137Z"
              fill="white"/>
        <path d="M129.412 131.269C129.411 131.854 129.178 132.415 128.765 132.828C128.352 133.242 127.791 133.475 127.207 133.477C126.622 133.476 126.061 133.243 125.648 132.829C125.234 132.415 125.001 131.854 125 131.269C125.002 130.685 125.235 130.125 125.648 129.711C126.062 129.298 126.622 129.066 127.207 129.064H129.412V131.269Z"
              fill="white"/>
        <path d="M130.524 131.269C130.525 130.685 130.758 130.125 131.172 129.712C131.585 129.298 132.145 129.066 132.73 129.064C133.314 129.066 133.874 129.298 134.288 129.712C134.701 130.125 134.934 130.685 134.936 131.269V136.793C134.934 137.378 134.701 137.938 134.288 138.352C133.875 138.765 133.314 138.998 132.73 139C132.145 138.998 131.585 138.765 131.171 138.352C130.758 137.938 130.525 137.378 130.524 136.793V131.269Z"
              fill="white"/>
        <path d="M132.73 122.412C132.145 122.41 131.585 122.177 131.172 121.764C130.759 121.351 130.526 120.791 130.524 120.207C130.525 119.622 130.758 119.062 131.171 118.648C131.585 118.235 132.145 118.002 132.73 118C133.314 118.002 133.875 118.235 134.288 118.648C134.701 119.062 134.934 119.622 134.936 120.207V122.412H132.73Z"
              fill="white"/>
        <path d="M132.73 123.524C133.314 123.525 133.874 123.758 134.288 124.172C134.701 124.585 134.934 125.145 134.936 125.73C134.934 126.314 134.701 126.874 134.288 127.288C133.874 127.701 133.314 127.934 132.73 127.936H127.207C126.622 127.934 126.062 127.701 125.648 127.288C125.235 126.875 125.002 126.314 125 125.73C125.002 125.145 125.235 124.585 125.648 124.171C126.062 123.758 126.622 123.525 127.207 123.524H132.73Z"
              fill="white"/>
        <path d="M141.587 125.73C141.588 125.145 141.821 124.585 142.235 124.171C142.648 123.758 143.209 123.525 143.793 123.524C144.378 123.525 144.938 123.758 145.352 124.171C145.765 124.585 145.998 125.145 146 125.73C145.998 126.314 145.765 126.875 145.352 127.288C144.938 127.701 144.378 127.934 143.793 127.936H141.587V125.73Z"
              fill="white"/>
        <path d="M140.477 125.73C140.475 126.315 140.242 126.875 139.829 127.288C139.415 127.702 138.854 127.934 138.269 127.936C137.685 127.934 137.125 127.701 136.712 127.288C136.298 126.874 136.066 126.314 136.064 125.73V120.207C136.066 119.622 136.298 119.062 136.711 118.648C137.125 118.235 137.685 118.002 138.269 118C138.854 118.001 139.415 118.234 139.829 118.648C140.243 119.061 140.476 119.622 140.477 120.207V125.73Z"
              fill="white"/>
        <path d="M138.269 134.587C138.854 134.588 139.415 134.82 139.829 135.234C140.243 135.648 140.476 136.208 140.477 136.793C140.476 137.378 140.243 137.939 139.829 138.352C139.415 138.766 138.854 138.999 138.269 139C137.685 138.998 137.125 138.765 136.711 138.352C136.298 137.938 136.066 137.378 136.064 136.793V134.587H138.269Z"
              fill="white"/>
        <path d="M138.269 133.477C137.685 133.475 137.124 133.242 136.711 132.828C136.298 132.415 136.065 131.854 136.064 131.269C136.066 130.685 136.299 130.125 136.712 129.712C137.125 129.299 137.685 129.066 138.269 129.064H143.793C144.378 129.066 144.938 129.298 145.352 129.711C145.765 130.125 145.998 130.685 146 131.269C145.999 131.854 145.766 132.415 145.352 132.829C144.939 133.243 144.378 133.476 143.793 133.477H138.269Z"
              fill="white"/>
        <path d="M407.717 161.951H404.536V160.361H407.717V161.951Z" fill="white"/>
        <path d="M407.717 162.86H404.536V164.45H407.717V162.86Z" fill="white"/>
        <path d="M407.717 155.362H404.536V156.953H407.717V155.362Z" fill="white"/>
        <path d="M407.717 157.861H404.536V159.452H407.717V157.861Z" fill="white"/>
        <path d="M407.717 165.359H404.536V166.949H407.717V165.359Z" fill="white"/>
        <path fill-rule="evenodd" clip-rule="evenodd"
              d="M409.914 168.494C409.823 168.967 409.255 168.978 408.875 168.994H401.81V171.039H400.399L390 169.221V153.32L400.46 151.5H401.81V153.311H408.632C409.016 153.327 409.439 153.299 409.773 153.529C410.007 153.865 409.984 154.292 410 154.678L409.991 166.506C409.98 167.167 410.052 167.842 409.914 168.494ZM398.331 164.929C397.704 163.657 397.066 162.394 396.441 161.122C397.059 159.883 397.668 158.641 398.274 157.398C397.759 157.423 397.243 157.455 396.73 157.491C396.346 158.425 395.898 159.334 395.598 160.299C395.319 159.388 394.948 158.511 394.61 157.623C394.11 157.65 393.61 157.68 393.11 157.709C393.637 158.872 394.199 160.02 394.71 161.19C394.108 162.326 393.544 163.478 392.96 164.621C393.458 164.641 393.955 164.661 394.453 164.668C394.807 163.764 395.248 162.894 395.557 161.971C395.834 162.962 396.305 163.878 396.691 164.825C397.238 164.864 397.784 164.898 398.331 164.929ZM408.916 154.39H401.81V155.362H403.627V156.953H401.81V157.861H403.627V159.452H401.81V160.361H403.627V161.951H401.81V162.86H403.627V164.45H401.81V165.359H403.627V166.949H401.81V168H408.916V154.39Z"
              fill="white"/>
        <path fill-rule="evenodd" clip-rule="evenodd"
              d="M696.682 154.656C697.142 153.277 696.984 151.766 696.249 150.51C695.144 148.588 692.92 147.599 690.75 148.059C689.782 146.974 688.395 146.356 686.94 146.363C684.723 146.363 682.752 147.791 682.066 149.899C680.638 150.194 679.409 151.087 678.688 152.35C677.576 154.272 677.83 156.689 679.32 158.336C678.86 159.716 679.018 161.226 679.752 162.476C680.857 164.405 683.082 165.394 685.258 164.934C686.219 166.018 687.606 166.643 689.061 166.636C691.279 166.636 693.249 165.208 693.936 163.101C695.364 162.805 696.592 161.913 697.306 160.65C698.425 158.727 698.171 156.311 696.682 154.663V154.656ZM695.103 151.176C695.542 151.945 695.707 152.844 695.556 153.716C695.528 153.695 695.473 153.668 695.439 153.647L691.402 151.313C691.196 151.196 690.942 151.196 690.736 151.313L686.006 154.045V152.041L689.913 149.782C691.732 148.732 694.052 149.357 695.103 151.176ZM686.006 155.343L687.997 154.19L689.988 155.343V157.643L687.997 158.796L686.006 157.643V155.343ZM686.933 147.688C687.826 147.688 688.684 147.997 689.37 148.567C689.343 148.581 689.288 148.615 689.247 148.636L685.21 150.963C685.004 151.08 684.88 151.299 684.88 151.54V157.004L683.144 156.002V151.485C683.144 149.384 684.839 147.688 686.94 147.681L686.933 147.688ZM679.841 153.016C680.288 152.247 680.981 151.656 681.819 151.347V156.146C681.819 156.386 681.942 156.599 682.148 156.723L686.871 159.448L685.128 160.457L681.228 158.206C679.416 157.155 678.791 154.835 679.841 153.016ZM680.906 161.824C680.459 161.062 680.301 160.155 680.452 159.284C680.48 159.304 680.535 159.332 680.569 159.352L684.606 161.686C684.812 161.803 685.066 161.803 685.272 161.686L689.995 158.954V160.959L686.089 163.21C684.269 164.254 681.949 163.636 680.899 161.824H680.906ZM689.068 165.311C688.183 165.311 687.318 165.002 686.638 164.432C686.665 164.419 686.727 164.384 686.762 164.364L690.798 162.036C691.004 161.92 691.135 161.7 691.128 161.46V156.002L692.865 157.004V161.515C692.865 163.615 691.162 165.318 689.068 165.318V165.311ZM696.167 159.984C695.721 160.753 695.02 161.343 694.19 161.645V156.846C694.19 156.606 694.066 156.386 693.86 156.27L689.13 153.537L690.867 152.535L694.773 154.787C696.592 155.837 697.21 158.158 696.16 159.977L696.167 159.984Z"
              fill="white"/>
    </g>
</svg>
