<svg
        xmlns="http://www.w3.org/2000/svg"
        width="110"
        height="110"
        viewBox="0 0 110 110"
        fill="none"

        >
<path
fillRule="evenodd"
clipRule="evenodd"
d="M46.2301 15.4944C50.4176 13.7599 55.0253 13.3061 59.4707 14.1903C63.9161 15.0746 67.9995 17.2572 71.2044 20.4621C74.4094 23.6671 76.592 27.7505 77.4762 32.1959C78.3605 36.6413 77.9067 41.249 76.1722 45.4365C74.5971 49.2389 72.0304 52.5397 68.7499 55C72.0304 57.4603 74.5971 60.7611 76.1722 64.5635C77.9067 68.751 78.3605 73.3587 77.4762 77.8041C76.592 82.2495 74.4094 86.3329 71.2044 89.5379C67.9995 92.7428 63.9161 94.9254 59.4707 95.8097C55.0253 96.6939 50.4176 96.2401 46.2301 94.5056C42.0426 92.7711 38.4635 89.8338 35.9454 86.0651C33.4273 82.2965 32.0833 77.8658 32.0833 73.3333C32.0833 70.802 34.1353 68.75 36.6666 68.75C39.1979 68.75 41.2499 70.802 41.2499 73.3333C41.2499 76.0528 42.0563 78.7112 43.5672 80.9724C45.0781 83.2336 47.2255 84.996 49.738 86.0367C52.2505 87.0774 55.0152 87.3497 57.6824 86.8191C60.3496 86.2886 62.7997 84.979 64.7226 83.056C66.6456 81.1331 67.9552 78.6831 68.4857 76.0158C69.0163 73.3486 68.744 70.5839 67.7033 68.0714C66.6626 65.559 64.9002 63.4115 62.639 61.9006C60.3778 60.3898 57.7194 59.5833 54.9999 59.5833C52.4686 59.5833 50.4166 57.5313 50.4166 55C50.4166 52.4687 52.4686 50.4167 54.9999 50.4167C57.7194 50.4167 60.3778 49.6103 62.639 48.0994C64.9002 46.5885 66.6626 44.4411 67.7033 41.9286C68.744 39.4161 69.0163 36.6514 68.4857 33.9842C67.9552 31.3169 66.6456 28.8669 64.7226 26.944C62.7997 25.021 60.3497 23.7114 57.6824 23.1809C55.0152 22.6503 52.2505 22.9226 49.738 23.9633C47.2255 25.004 45.0781 26.7664 43.5672 29.0276C42.0563 31.2888 41.2499 33.9472 41.2499 36.6667C41.2499 39.198 39.1979 41.25 36.6666 41.25C34.1353 41.25 32.0833 39.198 32.0833 36.6667C32.0833 32.1342 33.4273 27.7035 35.9454 23.9349C38.4635 20.1662 42.0426 17.2289 46.2301 15.4944Z"
fill="url(#paint0_linear_2949_79311)"
/>
<defs>
<linearGradient
        id="paint0_linear_2949_79311"
        x1="32.0833"
        y1="13.75"
        x2="94.752"
        y2="29.5734"
        gradientUnits="userSpaceOnUse"
>
    <stop stop-color="#9D7AFF" />
    <stop offset="1" stop-color="#52D5FF" />
</linearGradient>
</defs>
        </svg>