<svg
        xmlns="http://www.w3.org/2000/svg"
        width="110"
        height="110"
        viewBox="0 0 110 110"
        fill="none"

>
    <path
            fillRule="evenodd"
            clipRule="evenodd"
            d="M55.0002 22.9167C51.3535 22.9167 47.8561 24.3653 45.2775 26.9439C42.6988 29.5226 41.2502 33.0199 41.2502 36.6667C41.2502 39.198 39.1982 41.25 36.6669 41.25C34.1355 41.25 32.0835 39.198 32.0835 36.6667C32.0835 30.5888 34.4979 24.7598 38.7957 20.4621C43.0934 16.1644 48.9223 13.75 55.0002 13.75C61.0781 13.75 66.907 16.1644 71.2047 20.4621C75.5024 24.7598 77.9169 30.5888 77.9169 36.6667C77.9169 43.2738 74.5248 48.551 71.6899 52.3163C71.6875 52.3196 71.685 52.3229 71.6825 52.3262L45.7954 87.0833H73.3335C75.8648 87.0833 77.9169 89.1354 77.9169 91.6667C77.9169 94.198 75.8648 96.25 73.3335 96.25H36.6669C34.9336 96.25 33.3486 95.2722 32.5708 93.7232C31.7931 92.1742 31.9557 90.319 32.991 88.9289L64.3603 46.8113C66.9781 43.3356 68.7502 40.1187 68.7502 36.6667C68.7502 33.0199 67.3015 29.5226 64.7229 26.9439C62.1443 24.3653 58.6469 22.9167 55.0002 22.9167Z"
            fill="url(#paint0_linear_2949_79279)"
    />
    <defs>
        <linearGradient
                id="paint0_linear_2949_79279"
                x1="32.0835"
                y1="13.75"
                x2="94.7523"
                y2="29.5735"
                gradientUnits="userSpaceOnUse"
        >
            <stop stop-color="#9D7AFF"/>
            <stop offset="1" stop-color="#52D5FF"/>
        </linearGradient>
    </defs>
</svg>