<svg width="70" height="70" viewBox="0 0 70 70" fill="none" xmlns="http://www.w3.org/2000/svg">
<g id="puzzle">
<path id="Vector" fill-rule="evenodd" clip-rule="evenodd" d="M29.1666 11.6666C28.3931 11.6666 27.6512 11.9739 27.1043 12.5209C26.5573 13.0678 26.25 13.8097 26.25 14.5833V17.4999C26.25 19.047 25.6354 20.5307 24.5414 21.6247C23.4475 22.7187 21.9637 23.3333 20.4166 23.3333H11.6666V32.0833H14.5833C16.904 32.0833 19.1296 33.0051 20.7705 34.6461C22.4114 36.287 23.3333 38.5126 23.3333 40.8333C23.3333 43.1539 22.4114 45.3795 20.7705 47.0204C19.1296 48.6614 16.904 49.5832 14.5833 49.5832H11.6666V58.3332H20.4166V55.4166C20.4166 53.0959 21.3385 50.8703 22.9795 49.2294C24.6204 47.5885 26.846 46.6666 29.1666 46.6666C31.4873 46.6666 33.7129 47.5885 35.3538 49.2294C36.9948 50.8703 37.9166 53.0959 37.9166 55.4166V58.3332H46.6666V49.5832C46.6666 48.0362 47.2812 46.5524 48.3752 45.4585C49.4692 44.3645 50.9529 43.7499 52.5 43.7499H55.4166C56.1902 43.7499 56.9321 43.4426 57.479 42.8956C58.026 42.3487 58.3333 41.6068 58.3333 40.8333C58.3333 40.0597 58.026 39.3178 57.479 38.7709C56.9321 38.2239 56.1902 37.9166 55.4166 37.9166H52.5C50.9529 37.9166 49.4691 37.302 48.3752 36.208C47.2812 35.1141 46.6666 33.6303 46.6666 32.0833V23.3333H37.9166C36.3695 23.3333 34.8858 22.7187 33.7919 21.6247C32.6979 20.5307 32.0833 19.047 32.0833 17.4999V14.5833C32.0833 13.8097 31.776 13.0678 31.229 12.5209C30.6821 11.9739 29.9402 11.6666 29.1666 11.6666ZM22.9795 8.39607C24.6204 6.75512 26.846 5.83325 29.1666 5.83325C31.4873 5.83325 33.7129 6.75512 35.3538 8.39607C36.9948 10.037 37.9166 12.2626 37.9166 14.5833V17.4999H46.6666C48.2137 17.4999 49.6975 18.1145 50.7914 19.2085C51.8854 20.3024 52.5 21.7862 52.5 23.3333V32.0833H55.4166C57.7373 32.0833 59.9629 33.0051 61.6038 34.6461C63.2448 36.287 64.1666 38.5126 64.1666 40.8333C64.1666 43.1539 63.2448 45.3795 61.6038 47.0204C59.9629 48.6614 57.7373 49.5832 55.4166 49.5832H52.5L52.5 58.3332C52.5 59.8803 51.8854 61.3641 50.7914 62.458C49.6975 63.552 48.2137 64.1666 46.6666 64.1666H37.9166C36.3696 64.1666 34.8858 63.552 33.7919 62.458C32.6979 61.3641 32.0833 59.8803 32.0833 58.3332V55.4166C32.0833 54.643 31.776 53.9012 31.229 53.3542C30.6821 52.8072 29.9402 52.4999 29.1666 52.4999C28.3931 52.4999 27.6512 52.8072 27.1043 53.3542C26.5573 53.9012 26.25 54.643 26.25 55.4166V58.3332C26.25 59.8803 25.6354 61.3641 24.5414 62.458C23.4475 63.552 21.9637 64.1666 20.4166 64.1666H11.6666C10.1196 64.1666 8.63582 63.552 7.54186 62.458C6.44789 61.3641 5.83331 59.8803 5.83331 58.3332V49.5832C5.83331 48.0362 6.44789 46.5524 7.54186 45.4585C8.63582 44.3645 10.1196 43.7499 11.6666 43.7499H14.5833C15.3569 43.7499 16.0987 43.4426 16.6457 42.8956C17.1927 42.3487 17.5 41.6068 17.5 40.8333C17.5 40.0597 17.1927 39.3178 16.6457 38.7709C16.0987 38.2239 15.3569 37.9166 14.5833 37.9166H11.6666C10.1195 37.9166 8.63582 37.302 7.54186 36.208C6.44789 35.1141 5.83331 33.6303 5.83331 32.0833V23.3333C5.83331 21.7862 6.44789 20.3024 7.54186 19.2085C8.63582 18.1145 10.1195 17.4999 11.6666 17.4999H20.4166V14.5833C20.4166 12.2626 21.3385 10.037 22.9795 8.39607Z" fill="#FCFCFD"/>
</g>
</svg>
