<svg width="70" height="70" viewBox="0 0 70 70" fill="none" xmlns="http://www.w3.org/2000/svg">
<g id="app-window">
<path id="Vector" fill-rule="evenodd" clip-rule="evenodd" d="M14.5833 17.5001C13.8098 17.5001 13.0679 17.8074 12.5209 18.3544C11.9739 18.9013 11.6666 19.6432 11.6666 20.4167V49.5834C11.6666 50.357 11.9739 51.0988 12.5209 51.6458C13.0679 52.1928 13.8098 52.5001 14.5833 52.5001H55.4166C56.1902 52.5001 56.9321 52.1928 57.479 51.6458C58.026 51.0988 58.3333 50.357 58.3333 49.5834V20.4167C58.3333 19.6432 58.026 18.9013 57.479 18.3544C56.9321 17.8074 56.1902 17.5001 55.4166 17.5001H14.5833ZM8.39613 14.2296C10.0371 12.5886 12.2627 11.6667 14.5833 11.6667H55.4166C57.7373 11.6667 59.9629 12.5886 61.6038 14.2296C63.2448 15.8705 64.1666 18.0961 64.1666 20.4167V49.5834C64.1666 51.9041 63.2448 54.1297 61.6038 55.7706C59.9629 57.4115 57.7373 58.3334 55.4166 58.3334H14.5833C12.2627 58.3334 10.0371 57.4115 8.39613 55.7706C6.75519 54.1297 5.83331 51.9041 5.83331 49.5834V20.4167C5.83331 18.0961 6.75518 15.8705 8.39613 14.2296ZM14.5833 23.3334C14.5833 21.7226 15.8891 20.4167 17.5 20.4167H17.5291C19.14 20.4167 20.4458 21.7226 20.4458 23.3334C20.4458 24.9442 19.14 26.2501 17.5291 26.2501H17.5C15.8891 26.2501 14.5833 24.9442 14.5833 23.3334ZM23.3333 23.3334C23.3333 21.7226 24.6391 20.4167 26.25 20.4167H26.2791C27.89 20.4167 29.1958 21.7226 29.1958 23.3334C29.1958 24.9442 27.89 26.2501 26.2791 26.2501H26.25C24.6391 26.2501 23.3333 24.9442 23.3333 23.3334Z" fill="#FCFCFD"/>
</g>
</svg>
