<svg width="70" height="70" viewBox="0 0 70 70" fill="none" xmlns="http://www.w3.org/2000/svg">
<g id="device-mobile">
<path id="Vector" fill-rule="evenodd" clipRule="evenodd" d="M23.3333 11.6666C22.5598 11.6666 21.8179 11.9739 21.2709 12.5209C20.7239 13.0678 20.4166 13.8097 20.4166 14.5833V55.4166C20.4166 56.1901 20.7239 56.932 21.2709 57.479C21.8179 58.026 22.5598 58.3332 23.3333 58.3332H46.6666C47.4402 58.3332 48.1821 58.026 48.729 57.479C49.276 56.932 49.5833 56.1901 49.5833 55.4166V14.5833C49.5833 13.8097 49.276 13.0678 48.729 12.5209C48.1821 11.9739 47.4402 11.6666 46.6666 11.6666H40.8333C40.8333 13.2774 39.5275 14.5833 37.9166 14.5833H32.0833C30.4725 14.5833 29.1666 13.2774 29.1666 11.6666H23.3333ZM17.1461 8.39607C18.7871 6.75512 21.0127 5.83325 23.3333 5.83325H46.6666C48.9873 5.83325 51.2129 6.75512 52.8538 8.39607C54.4948 10.037 55.4166 12.2626 55.4166 14.5833V55.4166C55.4166 57.7372 54.4948 59.9628 52.8538 61.6038C51.2129 63.2447 48.9873 64.1666 46.6666 64.1666H23.3333C21.0127 64.1666 18.7871 63.2447 17.1461 61.6038C15.5052 59.9628 14.5833 57.7372 14.5833 55.4166V14.5833C14.5833 12.2626 15.5052 10.037 17.1461 8.39607ZM35 46.6666C36.6108 46.6666 37.9166 47.9724 37.9166 49.5832V49.6124C37.9166 51.2232 36.6108 52.5291 35 52.5291C33.3892 52.5291 32.0833 51.2232 32.0833 49.6124V49.5832C32.0833 47.9724 33.3892 46.6666 35 46.6666Z" fill="#FCFCFD"/>
</g>
</svg>
