<svg width="120" height="120" viewBox="0 0 120 120" fill="none" xmlns="http://www.w3.org/2000/svg">
<path d="M17.9454 35.8892C19.1268 35.5053 19.7733 34.2362 19.3892 33.0547C19.0053 31.8733 17.7361 31.2267 16.5547 31.6108C15.3732 31.9947 14.7268 33.2638 15.1107 34.4453C15.4948 35.6268 16.7638 36.2733 17.9454 35.8892Z" fill="#EAEEF9"/>
<path d="M21.4635 28.4262C22.2512 28.1701 22.6822 27.3241 22.4261 26.5364C22.1702 25.7488 21.3241 25.3179 20.5365 25.5738C19.7488 25.8299 19.3178 26.6759 19.5739 27.4636C19.8298 28.2512 20.676 28.6821 21.4635 28.4262Z" fill="#EAEEF9"/>
<path d="M108.402 41.1164C109.778 39.8589 109.874 37.7242 108.616 36.3483C107.359 34.9723 105.224 34.8762 103.848 36.1336C102.472 37.3911 102.376 39.5258 103.634 40.9017C104.891 42.2777 107.026 42.3738 108.402 41.1164Z" fill="#EAEEF9"/>
<path d="M109.011 28.1073C109.624 27.5484 109.666 26.5996 109.108 25.9881C108.548 25.3766 107.599 25.3338 106.988 25.8927C106.377 26.4516 106.334 27.4004 106.893 28.0119C107.451 28.6234 108.4 28.6662 109.011 28.1073Z" fill="#EAEEF9"/>
<path d="M59.9999 105C83.1958 105 102 86.196 102 63C102 39.8041 83.1958 21 59.9999 21C36.804 21 18 39.8041 18 63C18 86.196 36.804 105 59.9999 105Z" fill="#EAEEF9"/>
<path d="M37.3805 45.8813V50.5424V87.8308C37.3805 89.5571 38.7535 90.9381 40.3841 90.9381H100.457C102.173 90.9381 103.46 89.5571 103.46 87.8308V50.5424V46.0539C103.46 44.2413 102.002 42.7739 100.199 42.7739H40.3841L37.3805 45.8813Z" fill="white"/>
<g filter="url(#filter0_d_1770_4518)">
<path d="M20.3884 41.7382V47.2624V91.2835C20.3884 93.2688 22.0189 94.9087 23.9927 94.9087H94.9645C96.9387 94.9087 98.5694 93.2688 98.5694 91.2835V47.2624V41.9108C98.5694 39.7529 96.8526 38.1129 94.7929 38.1129H23.9927L20.3884 41.7382Z" fill="white"/>
</g>
<path d="M75.3121 45.5361H20.3884V41.7382C20.3884 39.7529 22.0189 38.1129 23.9927 38.1129H94.9645C96.9387 38.1129 98.5694 39.7529 98.5694 41.7382V45.5361H86.4685H75.3121Z" fill="url(#paint0_linear_1770_4518)"/>
<path d="M25.0226 43.2055C25.6862 43.2055 26.224 42.6646 26.224 41.9971C26.224 41.3298 25.6862 40.7887 25.0226 40.7887C24.3591 40.7887 23.8211 41.3298 23.8211 41.9971C23.8211 42.6646 24.3591 43.2055 25.0226 43.2055Z" fill="white"/>
<path d="M28.4554 43.2055C29.1189 43.2055 29.6569 42.6646 29.6569 41.9971C29.6569 41.3298 29.1189 40.7887 28.4554 40.7887C27.7918 40.7887 27.254 41.3298 27.254 41.9971C27.254 42.6646 27.7918 43.2055 28.4554 43.2055Z" fill="white"/>
<path d="M31.9738 43.2055C32.6374 43.2055 33.1753 42.6646 33.1753 41.9971C33.1753 41.3298 32.6374 40.7887 31.9738 40.7887C31.3102 40.7887 30.7724 41.3298 30.7724 41.9971C30.7724 42.6646 31.3102 43.2055 31.9738 43.2055Z" fill="white"/>
<path d="M56.1746 66.8561L42.1863 66.7698C41.5855 66.7698 41.1564 66.2518 41.1564 65.734C41.1564 65.1297 41.6714 64.6981 42.1863 64.6981L56.1746 64.7844C56.7754 64.7844 57.2045 65.3024 57.2045 65.8202C57.2045 66.3382 56.7754 66.8561 56.1746 66.8561Z" fill="#E3EAF2"/>
<path d="M89.3864 66.8561L73.2526 66.7698C72.6518 66.7698 72.2227 66.2518 72.2227 65.734C72.2227 65.1297 72.7376 64.6981 73.2526 64.6981L89.3005 64.7844C89.9013 64.7844 90.3304 65.3024 90.3304 65.8202C90.4163 66.3382 89.9872 66.8561 89.3864 66.8561Z" fill="#E3EAF2"/>
<path d="M78.6591 87.1403L62.5252 87.054C61.9245 87.054 61.4955 86.5361 61.4955 86.0182C61.4955 85.4139 62.0104 84.9824 62.5252 84.9824L78.6591 85.0687C79.2598 85.0687 79.6889 85.5866 79.6889 86.1045C79.6889 86.7087 79.1741 87.1403 78.6591 87.1403Z" fill="url(#paint1_linear_1770_4518)"/>
<path d="M68.7042 66.7699L60.8947 66.6836C60.294 66.6836 59.8649 66.1656 59.8649 65.6477C59.8649 65.0436 60.3798 64.6119 60.8947 64.6119L68.7042 64.6983C69.3048 64.6983 69.7339 65.2162 69.7339 65.734C69.8198 66.3383 69.3048 66.7699 68.7042 66.7699Z" fill="url(#paint2_linear_1770_4518)"/>
<path d="M36.6081 66.6836H30.8583C30.2575 66.6836 29.8285 66.1656 29.8285 65.6477C29.8285 65.0436 30.2575 64.6119 30.8583 64.6119H36.6081C37.2088 64.6119 37.6379 65.1299 37.6379 65.6477C37.6379 66.252 37.2088 66.6836 36.6081 66.6836Z" fill="url(#paint3_linear_1770_4518)"/>
<path d="M58.9209 73.5888L50.5107 73.5025C49.9099 73.5025 49.4808 72.9846 49.4808 72.4667C49.4808 71.8625 49.9958 71.4309 50.5107 71.4309L58.9209 71.5172C59.5216 71.5172 59.9507 72.0351 59.9507 72.553C60.0366 73.0709 59.5216 73.5888 58.9209 73.5888Z" fill="url(#paint4_linear_1770_4518)"/>
<path d="M85.0097 73.7614L63.641 73.5024C63.0402 73.5024 62.6111 72.9846 62.6111 72.4667C62.6111 71.8625 63.126 71.4309 63.641 71.4309L85.0097 71.6899C85.6104 71.6899 86.0395 72.2077 86.0395 72.7256C86.0395 73.2435 85.5246 73.7614 85.0097 73.7614Z" fill="#E3EAF2"/>
<path d="M44.9326 73.5024H30.8583C30.2575 73.5024 29.8285 72.9846 29.8285 72.4667C29.8285 71.8625 30.3434 71.4309 30.8583 71.4309H44.9326C45.5332 71.4309 45.9623 71.9488 45.9623 72.4667C45.9623 72.9846 45.5332 73.5024 44.9326 73.5024Z" fill="#E3EAF2"/>
<path d="M69.9914 80.3213L50.5107 80.2351C49.9099 80.2351 49.4808 79.7172 49.4808 79.1992C49.4808 78.5951 49.9958 78.1635 50.5107 78.1635L70.0773 78.2498C70.6781 78.2498 71.1071 78.7677 71.1071 79.2855C71.1071 79.8898 70.5922 80.3213 69.9914 80.3213Z" fill="url(#paint5_linear_1770_4518)"/>
<path d="M44.9326 80.2351H30.8583C30.2575 80.2351 29.8285 79.7172 29.8285 79.1992C29.8285 78.5951 30.3434 78.1635 30.8583 78.1635H44.9326C45.5332 78.1635 45.9623 78.6814 45.9623 79.1992C45.9623 79.7172 45.5332 80.2351 44.9326 80.2351Z" fill="#E3EAF2"/>
<path d="M57.1186 87.054L46.3913 86.9677C45.7905 86.9677 45.3614 86.4497 45.3614 85.9319C45.3614 85.3276 45.8764 84.8961 46.3913 84.8961L57.1186 84.9823C57.7193 84.9823 58.1484 85.5003 58.1484 86.0182C58.1484 86.6224 57.7193 87.054 57.1186 87.054Z" fill="#E3EAF2"/>
<path d="M39.526 86.9677H30.8583C30.2575 86.9677 29.8285 86.4497 29.8285 85.9319C29.8285 85.3276 30.3434 84.8961 30.8583 84.8961H39.526C40.1267 84.8961 40.5558 85.414 40.5558 85.9319C40.6416 86.5361 40.1267 86.9677 39.526 86.9677Z" fill="url(#paint6_linear_1770_4518)"/>
<path d="M70.3347 56.4119L30.8583 56.2393C30.2575 56.2393 29.8285 55.7213 29.8285 55.2035C29.8285 54.5992 30.3434 54.1677 30.8583 54.1677L70.3347 54.3404C70.9355 54.3404 71.3646 54.8582 71.3646 55.3761C71.3646 55.9803 70.9355 56.4119 70.3347 56.4119Z" fill="#1C3754"/>
<path d="M106.901 92.4522C105.17 100.933 96.7773 106.472 88.2967 104.654C79.8164 102.924 74.2783 94.5289 76.0955 86.0478C77.8261 77.5666 86.2198 72.0282 94.7 73.8456C97.7286 74.4514 100.498 75.9226 102.661 78.1727C106.382 81.8941 108.026 87.2597 106.901 92.4522Z" fill="url(#paint7_linear_1770_4518)"/>
<path d="M85.5469 89.9356C85.5469 89.9356 93.0172 98.4656 96.879 102.35C96.879 102.35 99.7952 100.791 101.417 99.2059C102.965 97.6933 104.045 95.7171 104.045 95.7171L97.4767 89.0045H90.5366L85.5469 89.9356Z" fill="url(#paint8_linear_1770_4518)"/>
<path fill-rule="evenodd" clip-rule="evenodd" d="M91.5 83.0625C92.1213 83.0625 92.625 83.5662 92.625 84.1875V88.125H96.5625C97.1838 88.125 97.6875 88.6287 97.6875 89.25C97.6875 89.8713 97.1838 90.375 96.5625 90.375H92.625V94.3125C92.625 94.9338 92.1213 95.4375 91.5 95.4375C90.8787 95.4375 90.375 94.9338 90.375 94.3125V90.375H86.4375C85.8162 90.375 85.3125 89.8713 85.3125 89.25C85.3125 88.6287 85.8162 88.125 86.4375 88.125H90.375V84.1875C90.375 83.5662 90.8787 83.0625 91.5 83.0625Z" fill="url(#paint9_linear_1770_4518)"/>
<path d="M86.25 19.5C87.0784 19.5 87.75 18.8285 87.75 18C87.75 17.1716 87.0784 16.5 86.25 16.5C85.4216 16.5 84.75 17.1716 84.75 18C84.75 18.8285 85.4216 19.5 86.25 19.5Z" fill="url(#paint10_linear_1770_4518)"/>
<path d="M13.5467 81.877C14.3751 81.877 15.0467 81.2053 15.0467 80.377C15.0467 79.5485 14.3751 78.877 13.5467 78.877C12.7183 78.877 12.0467 79.5485 12.0467 80.377C12.0467 81.2053 12.7183 81.877 13.5467 81.877Z" fill="url(#paint11_linear_1770_4518)"/>
<defs>
<filter id="filter0_d_1770_4518" x="18.3884" y="38.1129" width="86.181" height="64.7958" filterUnits="userSpaceOnUse" color-interpolation-filters="sRGB">
<feFlood flood-opacity="0" result="BackgroundImageFix"/>
<feColorMatrix in="SourceAlpha" type="matrix" values="0 0 0 0 0 0 0 0 0 0 0 0 0 0 0 0 0 0 127 0" result="hardAlpha"/>
<feOffset dx="2" dy="4"/>
<feGaussianBlur stdDeviation="2"/>
<feComposite in2="hardAlpha" operator="out"/>
<feColorMatrix type="matrix" values="0 0 0 0 0.0666667 0 0 0 0 0.0941176 0 0 0 0 0.152941 0 0 0 0.08 0"/>
<feBlend mode="normal" in2="BackgroundImageFix" result="effect1_dropShadow_1770_4518"/>
<feBlend mode="normal" in="SourceGraphic" in2="effect1_dropShadow_1770_4518" result="shape"/>
</filter>
<linearGradient id="paint0_linear_1770_4518" x1="20.25" y1="42" x2="98.625" y2="42.0001" gradientUnits="userSpaceOnUse">
<stop stop-color="#7C3AED"/>
<stop offset="1" stop-color="#B082FF"/>
</linearGradient>
<linearGradient id="paint1_linear_1770_4518" x1="61.4911" y1="86.036" x2="79.6891" y2="86.036" gradientUnits="userSpaceOnUse">
<stop stop-color="#FF66A9"/>
<stop offset="1" stop-color="#F53689"/>
</linearGradient>
<linearGradient id="paint2_linear_1770_4518" x1="59.8747" y1="65.7005" x2="69.7888" y2="65.7005" gradientUnits="userSpaceOnUse">
<stop stop-color="#83A6FF"/>
<stop offset="1" stop-color="#5A78FF"/>
</linearGradient>
<linearGradient id="paint3_linear_1770_4518" x1="29.814" y1="65.6166" x2="37.6682" y2="65.6166" gradientUnits="userSpaceOnUse">
<stop stop-color="#83A6FF"/>
<stop offset="1" stop-color="#5A78FF"/>
</linearGradient>
<linearGradient id="paint4_linear_1770_4518" x1="49.4848" y1="72.4711" x2="60.002" y2="72.4711" gradientUnits="userSpaceOnUse">
<stop stop-color="#FF66A9"/>
<stop offset="1" stop-color="#F53689"/>
</linearGradient>
<linearGradient id="paint5_linear_1770_4518" x1="49.4866" y1="79.2352" x2="71.0859" y2="79.2352" gradientUnits="userSpaceOnUse">
<stop stop-color="#83A6FF"/>
<stop offset="1" stop-color="#5A78FF"/>
</linearGradient>
<linearGradient id="paint6_linear_1770_4518" x1="29.8199" y1="85.9002" x2="40.6094" y2="85.9002" gradientUnits="userSpaceOnUse">
<stop stop-color="#FF66A9"/>
<stop offset="1" stop-color="#F53689"/>
</linearGradient>
<linearGradient id="paint7_linear_1770_4518" x1="75.7152" y1="89.2888" x2="107.24" y2="89.2888" gradientUnits="userSpaceOnUse">
<stop stop-color="#83A6FF"/>
<stop offset="1" stop-color="#5A78FF"/>
</linearGradient>
<linearGradient id="paint8_linear_1770_4518" x1="93.4201" y1="89.0045" x2="99.8475" y2="97.1882" gradientUnits="userSpaceOnUse">
<stop stop-color="#4F6AFF"/>
<stop offset="1" stop-color="#657EFF" stop-opacity="0"/>
</linearGradient>
<linearGradient id="paint9_linear_1770_4518" x1="94.8889" y1="92.8012" x2="85.0703" y2="85.3523" gradientUnits="userSpaceOnUse">
<stop offset="0.0113208" stop-color="#C2D1FF"/>
<stop offset="1" stop-color="white"/>
</linearGradient>
<linearGradient id="paint10_linear_1770_4518" x1="84.826" y1="17.9785" x2="87.7364" y2="17.9785" gradientUnits="userSpaceOnUse">
<stop stop-color="#FF66A9"/>
<stop offset="1" stop-color="#F53689"/>
</linearGradient>
<linearGradient id="paint11_linear_1770_4518" x1="12.1211" y1="80.3686" x2="15.0314" y2="80.3686" gradientUnits="userSpaceOnUse">
<stop stop-color="#FF66A9"/>
<stop offset="1" stop-color="#F53689"/>
</linearGradient>
</defs>
</svg>
