<svg width="104" height="204" viewBox="0 0 104 204" fill="none" xmlns="http://www.w3.org/2000/svg">
<path d="M56.7546 111.658C49.9406 111.658 44.4167 106.134 44.4167 99.3201C44.4167 92.5061 49.9406 86.9822 56.7546 86.9822C63.5687 86.9822 69.0925 92.5061 69.0925 99.3201C69.0925 106.134 63.5687 111.658 56.7546 111.658Z" fill="#BFBAF4"/>
<path d="M77.4207 122.762C72.8212 122.762 69.0926 119.034 69.0926 114.434C69.0926 109.835 72.8212 106.106 77.4207 106.106C82.0202 106.106 85.7488 109.835 85.7488 114.434C85.7488 119.034 82.0202 122.762 77.4207 122.762Z" fill="#BFBAF4"/>
<path d="M76.1865 99.937C73.6312 99.937 71.5598 97.8656 71.5598 95.3103C71.5598 92.755 73.6312 90.6836 76.1865 90.6836C78.7418 90.6836 80.8132 92.755 80.8132 95.3103C80.8132 97.8656 78.7418 99.937 76.1865 99.937Z" fill="#BFBAF4"/>
<path d="M99.0117 41.3318C96.4564 41.3318 94.385 39.2604 94.385 36.7051C94.385 34.1498 96.4564 32.0784 99.0117 32.0784C101.567 32.0784 103.638 34.1498 103.638 36.7051C103.638 39.2604 101.567 41.3318 99.0117 41.3318Z" fill="#BFBAF4"/>
<path d="M21.8998 203.575C9.80484 203.575 -3.05176e-05 193.771 -3.05176e-05 181.676C-3.05176e-05 169.581 9.80484 159.776 21.8998 159.776C33.9947 159.776 43.7996 169.581 43.7996 181.676C43.7996 193.771 33.9947 203.575 21.8998 203.575Z" fill="#E3E1FB"/>
<path d="M27.4516 15.4224C23.1929 15.4224 19.7405 11.97 19.7405 7.7112C19.7405 3.45242 23.1929 0 27.4516 0C31.7104 0 35.1628 3.45242 35.1628 7.7112C35.1628 11.97 31.7104 15.4224 27.4516 15.4224Z" fill="#E3E1FB"/>
<path d="M52.1274 169.029C47.8687 169.029 44.4162 165.577 44.4162 161.318C44.4162 157.059 47.8687 153.607 52.1274 153.607C56.3862 153.607 59.8386 157.059 59.8386 161.318C59.8386 165.577 56.3862 169.029 52.1274 169.029Z" fill="#E3E1FB"/>
</svg>
