<svg width="120" height="120" viewBox="0 0 120 120" fill="none" xmlns="http://www.w3.org/2000/svg">
<path d="M17.9454 35.8892C19.1268 35.5053 19.7733 34.2362 19.3892 33.0547C19.0053 31.8733 17.7361 31.2267 16.5547 31.6108C15.3732 31.9947 14.7268 33.2638 15.1107 34.4453C15.4948 35.6268 16.7638 36.2733 17.9454 35.8892Z" fill="#EAEEF9"/>
<path d="M21.4635 28.4262C22.2512 28.1701 22.6822 27.3241 22.4261 26.5364C22.1702 25.7488 21.3241 25.3179 20.5365 25.5738C19.7488 25.8299 19.3178 26.6759 19.5739 27.4636C19.8298 28.2512 20.676 28.6821 21.4635 28.4262Z" fill="#EAEEF9"/>
<path d="M108.402 41.1164C109.778 39.8589 109.874 37.7242 108.616 36.3483C107.359 34.9723 105.224 34.8762 103.848 36.1336C102.472 37.3911 102.376 39.5258 103.634 40.9017C104.891 42.2777 107.026 42.3738 108.402 41.1164Z" fill="#EAEEF9"/>
<path d="M109.011 28.1073C109.624 27.5484 109.666 26.5996 109.108 25.9881C108.548 25.3766 107.599 25.3338 106.988 25.8927C106.377 26.4516 106.334 27.4004 106.893 28.0119C107.451 28.6234 108.4 28.6662 109.011 28.1073Z" fill="#EAEEF9"/>
<path d="M59.9999 105C83.1958 105 102 86.196 102 63C102 39.8041 83.1958 21 59.9999 21C36.804 21 18 39.8041 18 63C18 86.196 36.804 105 59.9999 105Z" fill="#EAEEF9"/>
<path d="M37.3805 45.8813V50.5424V87.8308C37.3805 89.5571 38.7535 90.9382 40.3841 90.9382H100.457C102.173 90.9382 103.46 89.5571 103.46 87.8308V50.5424V46.0539C103.46 44.2413 102.002 42.7739 100.199 42.7739H40.3841L37.3805 45.8813Z" fill="white"/>
<g filter="url(#filter0_d_1770_4558)">
<path d="M20.3884 41.7382V47.2624V91.2835C20.3884 93.2688 22.0189 94.9087 23.9927 94.9087H94.9645C96.9387 94.9087 98.5693 93.2688 98.5693 91.2835V47.2624V41.9108C98.5693 39.7529 96.8525 38.1129 94.7929 38.1129H23.9927L20.3884 41.7382Z" fill="white"/>
</g>
<path d="M75.3121 45.5361H20.3884V41.7382C20.3884 39.7529 22.0189 38.1129 23.9927 38.1129H94.9645C96.9387 38.1129 98.5693 39.7529 98.5693 41.7382V45.5361H86.4685H75.3121Z" fill="url(#paint0_linear_1770_4558)"/>
<path d="M25.0226 43.2055C25.6862 43.2055 26.224 42.6646 26.224 41.9971C26.224 41.3298 25.6862 40.7887 25.0226 40.7887C24.3591 40.7887 23.8211 41.3298 23.8211 41.9971C23.8211 42.6646 24.3591 43.2055 25.0226 43.2055Z" fill="white"/>
<path d="M28.4554 43.2055C29.1189 43.2055 29.6568 42.6646 29.6568 41.9971C29.6568 41.3298 29.1189 40.7887 28.4554 40.7887C27.7918 40.7887 27.2539 41.3298 27.2539 41.9971C27.2539 42.6646 27.7918 43.2055 28.4554 43.2055Z" fill="white"/>
<path d="M31.9738 43.2055C32.6374 43.2055 33.1752 42.6646 33.1752 41.9971C33.1752 41.3298 32.6374 40.7887 31.9738 40.7887C31.3102 40.7887 30.7723 41.3298 30.7723 41.9971C30.7723 42.6646 31.3102 43.2055 31.9738 43.2055Z" fill="white"/>
<path d="M86.25 19.5C87.0784 19.5 87.75 18.8285 87.75 18C87.75 17.1716 87.0784 16.5 86.25 16.5C85.4216 16.5 84.75 17.1716 84.75 18C84.75 18.8285 85.4216 19.5 86.25 19.5Z" fill="url(#paint1_linear_1770_4558)"/>
<path d="M13.5467 81.877C14.3751 81.877 15.0467 81.2053 15.0467 80.377C15.0467 79.5485 14.3751 78.877 13.5467 78.877C12.7183 78.877 12.0467 79.5485 12.0467 80.377C12.0467 81.2053 12.7183 81.877 13.5467 81.877Z" fill="url(#paint2_linear_1770_4558)"/>
<path d="M75.4011 74.0678C73.6701 82.549 65.2773 88.0874 56.7967 86.27C48.3164 84.5391 42.7783 76.1445 44.5955 67.6634C46.3261 59.1822 54.7198 53.6438 63.2 55.4612C66.2286 56.067 68.998 57.5382 71.1613 59.7884C74.882 63.5097 76.5262 68.8753 75.4011 74.0678Z" fill="url(#paint3_linear_1770_4558)"/>
<path d="M57.0388 75.2273C57.0388 75.2273 61.6043 80.0824 65.4662 83.9666C65.4662 83.9666 69.073 81.574 70.6945 79.9892C72.2422 78.4766 73.8059 74.6005 73.8059 74.6005L66.3223 65.8633L60.4575 71.8662L57.0388 75.2273Z" fill="url(#paint4_linear_1770_4558)"/>
<g clip-path="url(#clip0_1770_4558)">
<path fillRule="evenodd" clipRule="evenodd" d="M66.3338 65.6893C66.8887 66.2751 66.8887 67.2249 66.3338 67.8107L59.2285 75.3107C58.6736 75.8964 57.7738 75.8964 57.2188 75.3107L53.6662 71.5607C53.1113 70.9749 53.1113 70.0251 53.6662 69.4393C54.2212 68.8536 55.1209 68.8536 55.6759 69.4393L58.2237 72.1287L64.3241 65.6893C64.8791 65.1036 65.7788 65.1036 66.3338 65.6893Z" fill="url(#paint5_linear_1770_4558)"/>
</g>
<defs>
<filter id="filter0_d_1770_4558" x="18.3884" y="38.1129" width="86.181" height="64.7958" filterUnits="userSpaceOnUse" color-interpolation-filters="sRGB">
<feFlood flood-opacity="0" result="BackgroundImageFix"/>
<feColorMatrix in="SourceAlpha" type="matrix" values="0 0 0 0 0 0 0 0 0 0 0 0 0 0 0 0 0 0 127 0" result="hardAlpha"/>
<feOffset dx="2" dy="4"/>
<feGaussianBlur stdDeviation="2"/>
<feComposite in2="hardAlpha" operator="out"/>
<feColorMatrix type="matrix" values="0 0 0 0 0.0666667 0 0 0 0 0.0941176 0 0 0 0 0.152941 0 0 0 0.08 0"/>
<feBlend mode="normal" in2="BackgroundImageFix" result="effect1_dropShadow_1770_4558"/>
<feBlend mode="normal" in="SourceGraphic" in2="effect1_dropShadow_1770_4558" result="shape"/>
</filter>
<linearGradient id="paint0_linear_1770_4558" x1="20.25" y1="42" x2="98.625" y2="42.0001" gradientUnits="userSpaceOnUse">
<stop stop-color="#7C3AED"/>
<stop offset="1" stop-color="#B082FF"/>
</linearGradient>
<linearGradient id="paint1_linear_1770_4558" x1="84.826" y1="17.9785" x2="87.7364" y2="17.9785" gradientUnits="userSpaceOnUse">
<stop stop-color="#FF66A9"/>
<stop offset="1" stop-color="#F53689"/>
</linearGradient>
<linearGradient id="paint2_linear_1770_4558" x1="12.1211" y1="80.3686" x2="15.0314" y2="80.3686" gradientUnits="userSpaceOnUse">
<stop stop-color="#FF66A9"/>
<stop offset="1" stop-color="#F53689"/>
</linearGradient>
<linearGradient id="paint3_linear_1770_4558" x1="44.2152" y1="70.9044" x2="75.7397" y2="70.9044" gradientUnits="userSpaceOnUse">
<stop stop-color="#83A6FF"/>
<stop offset="1" stop-color="#5A78FF"/>
</linearGradient>
<linearGradient id="paint4_linear_1770_4558" x1="61.9201" y1="70.6201" x2="68.3475" y2="78.8038" gradientUnits="userSpaceOnUse">
<stop stop-color="#4F6AFF"/>
<stop offset="1" stop-color="#657EFF" stop-opacity="0"/>
</linearGradient>
<linearGradient id="paint5_linear_1770_4558" x1="63.697" y1="73.5131" x2="55.0489" y2="65.0777" gradientUnits="userSpaceOnUse">
<stop offset="0.0113208" stop-color="#C2D1FF"/>
<stop offset="1" stop-color="white"/>
</linearGradient>
<clipPath id="clip0_1770_4558">
<rect width="13.5" height="13.5" fill="white" transform="translate(53.25 63.75)"/>
</clipPath>
</defs>
</svg>
