<svg width="120" height="120" viewBox="0 0 120 120" fill="none" xmlns="http://www.w3.org/2000/svg">
<path d="M17.9454 35.8892C19.1268 35.5053 19.7733 34.2362 19.3892 33.0547C19.0053 31.8733 17.7361 31.2267 16.5547 31.6108C15.3732 31.9947 14.7268 33.2638 15.1107 34.4453C15.4948 35.6268 16.7638 36.2733 17.9454 35.8892Z" fill="#EAEEF9"/>
<path d="M21.4635 28.4262C22.2512 28.1701 22.6822 27.3241 22.4261 26.5364C22.1702 25.7488 21.3241 25.3179 20.5365 25.5738C19.7488 25.8299 19.3178 26.6759 19.5739 27.4636C19.8298 28.2512 20.676 28.6821 21.4635 28.4262Z" fill="#EAEEF9"/>
<path d="M108.402 41.1164C109.778 39.8589 109.874 37.7242 108.616 36.3483C107.359 34.9723 105.224 34.8762 103.848 36.1336C102.472 37.3911 102.376 39.5258 103.634 40.9017C104.891 42.2777 107.026 42.3738 108.402 41.1164Z" fill="#EAEEF9"/>
<path d="M109.011 28.1073C109.624 27.5484 109.666 26.5996 109.108 25.9881C108.548 25.3766 107.599 25.3338 106.988 25.8927C106.377 26.4516 106.334 27.4004 106.893 28.0119C107.451 28.6234 108.4 28.6662 109.011 28.1073Z" fill="#EAEEF9"/>
<path d="M59.9999 105C83.1958 105 102 86.196 102 63C102 39.8041 83.1958 21 59.9999 21C36.804 21 18 39.8041 18 63C18 86.196 36.804 105 59.9999 105Z" fill="#EAEEF9"/>
<path d="M37.3805 45.8813V50.5424V87.8308C37.3805 89.5571 38.7535 90.9381 40.3841 90.9381H100.457C102.173 90.9381 103.46 89.5571 103.46 87.8308V50.5424V46.0539C103.46 44.2413 102.002 42.7739 100.199 42.7739H40.3841L37.3805 45.8813Z" fill="white"/>
<g filter="url(#filter0_d_1753_4805)">
<path d="M20.3884 41.7382V47.2624V91.2835C20.3884 93.2688 22.0189 94.9087 23.9927 94.9087H94.9645C96.9387 94.9087 98.5693 93.2688 98.5693 91.2835V47.2624V41.9108C98.5693 39.7529 96.8526 38.1129 94.7929 38.1129H23.9927L20.3884 41.7382Z" fill="white"/>
</g>
<path d="M75.3121 45.5361H20.3884V41.7382C20.3884 39.7529 22.0189 38.1129 23.9927 38.1129H94.9645C96.9387 38.1129 98.5693 39.7529 98.5693 41.7382V45.5361H86.4685H75.3121Z" fill="url(#paint0_linear_1753_4805)"/>
<path d="M25.0226 43.2055C25.6862 43.2055 26.2241 42.6646 26.2241 41.9971C26.2241 41.3298 25.6862 40.7887 25.0226 40.7887C24.3591 40.7887 23.8212 41.3298 23.8212 41.9971C23.8212 42.6646 24.3591 43.2055 25.0226 43.2055Z" fill="white"/>
<path d="M28.4554 43.2055C29.1189 43.2055 29.6569 42.6646 29.6569 41.9971C29.6569 41.3298 29.1189 40.7887 28.4554 40.7887C27.7918 40.7887 27.254 41.3298 27.254 41.9971C27.254 42.6646 27.7918 43.2055 28.4554 43.2055Z" fill="white"/>
<path d="M31.9738 43.2055C32.6374 43.2055 33.1752 42.6646 33.1752 41.9971C33.1752 41.3298 32.6374 40.7887 31.9738 40.7887C31.3102 40.7887 30.7723 41.3298 30.7723 41.9971C30.7723 42.6646 31.3102 43.2055 31.9738 43.2055Z" fill="white"/>
<path d="M86.25 19.5C87.0784 19.5 87.75 18.8285 87.75 18C87.75 17.1716 87.0784 16.5 86.25 16.5C85.4216 16.5 84.75 17.1716 84.75 18C84.75 18.8285 85.4216 19.5 86.25 19.5Z" fill="url(#paint1_linear_1753_4805)"/>
<path d="M13.5467 81.877C14.3751 81.877 15.0467 81.2053 15.0467 80.377C15.0467 79.5485 14.3751 78.877 13.5467 78.877C12.7183 78.877 12.0467 79.5485 12.0467 80.377C12.0467 81.2053 12.7183 81.877 13.5467 81.877Z" fill="url(#paint2_linear_1753_4805)"/>
<path fill-rule="evenodd" clipRule="evenodd" d="M27.8237 50.6963C27.6604 50.6963 27.5055 50.7288 27.3644 50.7873C27.2114 50.8507 27.0358 50.7781 26.9724 50.6251C26.9089 50.472 26.9815 50.2965 27.1346 50.233C27.3472 50.1448 27.5802 50.0963 27.8237 50.0963H28.5758C28.7415 50.0963 28.8758 50.2306 28.8758 50.3963C28.8758 50.562 28.7415 50.6963 28.5758 50.6963H27.8237ZM29.7801 50.3963C29.7801 50.2306 29.9144 50.0963 30.0801 50.0963H31.5844C31.7501 50.0963 31.8844 50.2306 31.8844 50.3963C31.8844 50.562 31.7501 50.6963 31.5844 50.6963H30.0801C29.9144 50.6963 29.7801 50.562 29.7801 50.3963ZM32.7887 50.3963C32.7887 50.2306 32.923 50.0963 33.0887 50.0963H34.593C34.7587 50.0963 34.893 50.2306 34.893 50.3963C34.893 50.562 34.7587 50.6963 34.593 50.6963H33.0887C32.923 50.6963 32.7887 50.562 32.7887 50.3963ZM35.7973 50.3963C35.7973 50.2306 35.9316 50.0963 36.0973 50.0963H37.6015C37.7672 50.0963 37.9015 50.2306 37.9015 50.3963C37.9015 50.562 37.7672 50.6963 37.6015 50.6963H36.0973C35.9316 50.6963 35.7973 50.562 35.7973 50.3963ZM38.8058 50.3963C38.8058 50.2306 38.9401 50.0963 39.1058 50.0963H40.6101C40.7758 50.0963 40.9101 50.2306 40.9101 50.3963C40.9101 50.562 40.7758 50.6963 40.6101 50.6963H39.1058C38.9401 50.6963 38.8058 50.562 38.8058 50.3963ZM41.8144 50.3963C41.8144 50.2306 41.9487 50.0963 42.1144 50.0963H43.6187C43.7844 50.0963 43.9187 50.2306 43.9187 50.3963C43.9187 50.562 43.7844 50.6963 43.6187 50.6963H42.1144C41.9487 50.6963 41.8144 50.562 41.8144 50.3963ZM44.823 50.3963C44.823 50.2306 44.9573 50.0963 45.123 50.0963H46.6273C46.7929 50.0963 46.9273 50.2306 46.9273 50.3963C46.9273 50.562 46.7929 50.6963 46.6273 50.6963H45.123C44.9573 50.6963 44.823 50.562 44.823 50.3963ZM47.8315 50.3963C47.8315 50.2306 47.9659 50.0963 48.1315 50.0963H49.6358C49.8015 50.0963 49.9358 50.2306 49.9358 50.3963C49.9358 50.562 49.8015 50.6963 49.6358 50.6963H48.1315C47.9659 50.6963 47.8315 50.562 47.8315 50.3963ZM50.8401 50.3963C50.8401 50.2306 50.9744 50.0963 51.1401 50.0963H52.6444C52.8101 50.0963 52.9444 50.2306 52.9444 50.3963C52.9444 50.562 52.8101 50.6963 52.6444 50.6963H51.1401C50.9744 50.6963 50.8401 50.562 50.8401 50.3963ZM53.8487 50.3963C53.8487 50.2306 53.983 50.0963 54.1487 50.0963H55.653C55.8187 50.0963 55.953 50.2306 55.953 50.3963C55.953 50.562 55.8187 50.6963 55.653 50.6963H54.1487C53.983 50.6963 53.8487 50.562 53.8487 50.3963ZM56.8573 50.3963C56.8573 50.2306 56.9916 50.0963 57.1573 50.0963H58.6615C58.8272 50.0963 58.9615 50.2306 58.9615 50.3963C58.9615 50.562 58.8272 50.6963 58.6615 50.6963H57.1573C56.9916 50.6963 56.8573 50.562 56.8573 50.3963ZM59.8658 50.3963C59.8658 50.2306 60.0001 50.0963 60.1658 50.0963H61.6701C61.8358 50.0963 61.9701 50.2306 61.9701 50.3963C61.9701 50.562 61.8358 50.6963 61.6701 50.6963H60.1658C60.0001 50.6963 59.8658 50.562 59.8658 50.3963ZM62.8744 50.3963C62.8744 50.2306 63.0087 50.0963 63.1744 50.0963H64.6787C64.8444 50.0963 64.9787 50.2306 64.9787 50.3963C64.9787 50.562 64.8444 50.6963 64.6787 50.6963H63.1744C63.0087 50.6963 62.8744 50.562 62.8744 50.3963ZM65.883 50.3963C65.883 50.2306 66.0173 50.0963 66.183 50.0963H67.6873C67.8529 50.0963 67.9873 50.2306 67.9873 50.3963C67.9873 50.562 67.8529 50.6963 67.6873 50.6963H66.183C66.0173 50.6963 65.883 50.562 65.883 50.3963ZM68.8915 50.3963C68.8915 50.2306 69.0259 50.0963 69.1915 50.0963H70.6958C70.8615 50.0963 70.9958 50.2306 70.9958 50.3963C70.9958 50.562 70.8615 50.6963 70.6958 50.6963H69.1915C69.0259 50.6963 68.8915 50.562 68.8915 50.3963ZM71.9001 50.3963C71.9001 50.2306 72.0344 50.0963 72.2001 50.0963H73.7044C73.8701 50.0963 74.0044 50.2306 74.0044 50.3963C74.0044 50.562 73.8701 50.6963 73.7044 50.6963H72.2001C72.0344 50.6963 71.9001 50.562 71.9001 50.3963ZM74.9087 50.3963C74.9087 50.2306 75.043 50.0963 75.2087 50.0963H76.713C76.8787 50.0963 77.013 50.2306 77.013 50.3963C77.013 50.562 76.8787 50.6963 76.713 50.6963H75.2087C75.043 50.6963 74.9087 50.562 74.9087 50.3963ZM77.9173 50.3963C77.9173 50.2306 78.0516 50.0963 78.2173 50.0963H79.7215C79.8872 50.0963 80.0215 50.2306 80.0215 50.3963C80.0215 50.562 79.8872 50.6963 79.7215 50.6963H78.2173C78.0516 50.6963 77.9173 50.562 77.9173 50.3963ZM80.9258 50.3963C80.9258 50.2306 81.0601 50.0963 81.2258 50.0963H82.7301C82.8958 50.0963 83.0301 50.2306 83.0301 50.3963C83.0301 50.562 82.8958 50.6963 82.7301 50.6963H81.2258C81.0601 50.6963 80.9258 50.562 80.9258 50.3963ZM83.9344 50.3963C83.9344 50.2306 84.0687 50.0963 84.2344 50.0963H85.7387C85.9044 50.0963 86.0387 50.2306 86.0387 50.3963C86.0387 50.562 85.9044 50.6963 85.7387 50.6963H84.2344C84.0687 50.6963 83.9344 50.562 83.9344 50.3963ZM86.943 50.3963C86.943 50.2306 87.0773 50.0963 87.243 50.0963H88.7473C88.9129 50.0963 89.0473 50.2306 89.0473 50.3963C89.0473 50.562 88.9129 50.6963 88.7473 50.6963H87.243C87.0773 50.6963 86.943 50.562 86.943 50.3963ZM89.9515 50.3963C89.9515 50.2306 90.0859 50.0963 90.2515 50.0963H91.0037C91.2472 50.0963 91.4801 50.1448 91.6928 50.233C91.8458 50.2965 91.9184 50.472 91.855 50.6251C91.7915 50.7781 91.616 50.8507 91.463 50.7873C91.3219 50.7288 91.1669 50.6963 91.0037 50.6963H90.2515C90.0859 50.6963 89.9515 50.562 89.9515 50.3963ZM26.5524 51.045C26.7055 51.1085 26.7781 51.284 26.7146 51.437C26.6561 51.5781 26.6237 51.7331 26.6237 51.8963V52.5918C26.6237 52.7575 26.4894 52.8918 26.3237 52.8918C26.158 52.8918 26.0237 52.7575 26.0237 52.5918V51.8963C26.0237 51.6528 26.0722 51.4199 26.1604 51.2072C26.2239 51.0542 26.3994 50.9815 26.5524 51.045ZM92.2749 51.045C92.428 50.9815 92.6035 51.0542 92.667 51.2072C92.7552 51.4199 92.8037 51.6528 92.8037 51.8963V52.5918C92.8037 52.7575 92.6694 52.8918 92.5037 52.8918C92.338 52.8918 92.2037 52.7575 92.2037 52.5918V51.8963C92.2037 51.7331 92.1712 51.5781 92.1127 51.437C92.0493 51.284 92.1219 51.1085 92.2749 51.045ZM92.5037 53.6827C92.6694 53.6827 92.8037 53.817 92.8037 53.9827V55.3737C92.8037 55.5394 92.6694 55.6737 92.5037 55.6737C92.338 55.6737 92.2037 55.5394 92.2037 55.3737V53.9827C92.2037 53.817 92.338 53.6827 92.5037 53.6827ZM26.3237 53.6827C26.4894 53.6827 26.6237 53.817 26.6237 53.9827V55.3737C26.6237 55.5394 26.4894 55.6737 26.3237 55.6737C26.158 55.6737 26.0237 55.5394 26.0237 55.3737V53.9827C26.0237 53.817 26.158 53.6827 26.3237 53.6827ZM26.3237 56.4646C26.4894 56.4646 26.6237 56.5989 26.6237 56.7646V58.1556C26.6237 58.3212 26.4894 58.4556 26.3237 58.4556C26.158 58.4556 26.0237 58.3212 26.0237 58.1556V56.7646C26.0237 56.5989 26.158 56.4646 26.3237 56.4646ZM92.5037 56.4646C92.6694 56.4646 92.8037 56.5989 92.8037 56.7646V58.1556C92.8037 58.3212 92.6694 58.4556 92.5037 58.4556C92.338 58.4556 92.2037 58.3212 92.2037 58.1556V56.7646C92.2037 56.5989 92.338 56.4646 92.5037 56.4646ZM26.3237 59.2465C26.4894 59.2465 26.6237 59.3808 26.6237 59.5465V60.9374C26.6237 61.1031 26.4894 61.2374 26.3237 61.2374C26.158 61.2374 26.0237 61.1031 26.0237 60.9374V59.5465C26.0237 59.3808 26.158 59.2465 26.3237 59.2465ZM92.5037 59.2465C92.6694 59.2465 92.8037 59.3808 92.8037 59.5465V60.9374C92.8037 61.1031 92.6694 61.2374 92.5037 61.2374C92.338 61.2374 92.2037 61.1031 92.2037 60.9374V59.5465C92.2037 59.3808 92.338 59.2465 92.5037 59.2465ZM92.5037 62.0284C92.6694 62.0284 92.8037 62.1627 92.8037 62.3284V63.7193C92.8037 63.885 92.6694 64.0193 92.5037 64.0193C92.338 64.0193 92.2037 63.885 92.2037 63.7193V62.3284C92.2037 62.1627 92.338 62.0284 92.5037 62.0284ZM26.3237 62.0284C26.4894 62.0284 26.6237 62.1627 26.6237 62.3284V63.7193C26.6237 63.885 26.4894 64.0193 26.3237 64.0193C26.158 64.0193 26.0237 63.885 26.0237 63.7193V62.3284C26.0237 62.1627 26.158 62.0284 26.3237 62.0284ZM26.3237 64.8103C26.4894 64.8103 26.6237 64.9446 26.6237 65.1103V65.8057C26.6237 65.969 26.6561 66.1239 26.7146 66.265C26.7781 66.418 26.7055 66.5936 26.5524 66.657C26.3994 66.7205 26.2239 66.6479 26.1604 66.4948C26.0722 66.2822 26.0237 66.0492 26.0237 65.8057V65.1103C26.0237 64.9446 26.158 64.8103 26.3237 64.8103ZM92.5037 64.8103C92.6694 64.8103 92.8037 64.9446 92.8037 65.1103V65.8057C92.8037 66.0492 92.7552 66.2822 92.667 66.4948C92.6035 66.6479 92.428 66.7205 92.2749 66.657C92.1219 66.5936 92.0493 66.418 92.1127 66.265C92.1712 66.1239 92.2037 65.969 92.2037 65.8057V65.1103C92.2037 64.9446 92.338 64.8103 92.5037 64.8103ZM26.9724 67.077C27.0358 66.924 27.2114 66.8513 27.3644 66.9148C27.5055 66.9733 27.6604 67.0057 27.8237 67.0057H28.5758C28.7415 67.0057 28.8758 67.14 28.8758 67.3057C28.8758 67.4714 28.7415 67.6057 28.5758 67.6057H27.8237C27.5802 67.6057 27.3472 67.5572 27.1346 67.469C26.9815 67.4056 26.9089 67.23 26.9724 67.077ZM91.855 67.077C91.9184 67.23 91.8458 67.4056 91.6928 67.469C91.4801 67.5572 91.2472 67.6057 91.0037 67.6057H90.2515C90.0859 67.6057 89.9515 67.4714 89.9515 67.3057C89.9515 67.14 90.0859 67.0057 90.2515 67.0057H91.0037C91.1669 67.0057 91.3219 66.9733 91.4629 66.9148C91.616 66.8513 91.7915 66.924 91.855 67.077ZM29.7801 67.3057C29.7801 67.14 29.9144 67.0057 30.0801 67.0057H31.5844C31.7501 67.0057 31.8844 67.14 31.8844 67.3057C31.8844 67.4714 31.7501 67.6057 31.5844 67.6057H30.0801C29.9144 67.6057 29.7801 67.4714 29.7801 67.3057ZM32.7887 67.3057C32.7887 67.14 32.923 67.0057 33.0887 67.0057H34.593C34.7586 67.0057 34.893 67.14 34.893 67.3057C34.893 67.4714 34.7586 67.6057 34.593 67.6057H33.0887C32.923 67.6057 32.7887 67.4714 32.7887 67.3057ZM35.7972 67.3057C35.7972 67.14 35.9316 67.0057 36.0972 67.0057H37.6015C37.7672 67.0057 37.9015 67.14 37.9015 67.3057C37.9015 67.4714 37.7672 67.6057 37.6015 67.6057H36.0972C35.9316 67.6057 35.7972 67.4714 35.7972 67.3057ZM38.8058 67.3057C38.8058 67.14 38.9401 67.0057 39.1058 67.0057H40.6101C40.7758 67.0057 40.9101 67.14 40.9101 67.3057C40.9101 67.4714 40.7758 67.6057 40.6101 67.6057H39.1058C38.9401 67.6057 38.8058 67.4714 38.8058 67.3057ZM41.8144 67.3057C41.8144 67.14 41.9487 67.0057 42.1144 67.0057H43.6187C43.7844 67.0057 43.9187 67.14 43.9187 67.3057C43.9187 67.4714 43.7844 67.6057 43.6187 67.6057H42.1144C41.9487 67.6057 41.8144 67.4714 41.8144 67.3057ZM44.823 67.3057C44.823 67.14 44.9573 67.0057 45.123 67.0057H46.6273C46.7929 67.0057 46.9272 67.14 46.9272 67.3057C46.9272 67.4714 46.7929 67.6057 46.6273 67.6057H45.123C44.9573 67.6057 44.823 67.4714 44.823 67.3057ZM47.8315 67.3057C47.8315 67.14 47.9658 67.0057 48.1315 67.0057H49.6358C49.8015 67.0057 49.9358 67.14 49.9358 67.3057C49.9358 67.4714 49.8015 67.6057 49.6358 67.6057H48.1315C47.9658 67.6057 47.8315 67.4714 47.8315 67.3057ZM50.8401 67.3057C50.8401 67.14 50.9744 67.0057 51.1401 67.0057H52.6444C52.8101 67.0057 52.9444 67.14 52.9444 67.3057C52.9444 67.4714 52.8101 67.6057 52.6444 67.6057H51.1401C50.9744 67.6057 50.8401 67.4714 50.8401 67.3057ZM53.8487 67.3057C53.8487 67.14 53.983 67.0057 54.1487 67.0057H55.653C55.8187 67.0057 55.953 67.14 55.953 67.3057C55.953 67.4714 55.8187 67.6057 55.653 67.6057H54.1487C53.983 67.6057 53.8487 67.4714 53.8487 67.3057ZM56.8573 67.3057C56.8573 67.14 56.9916 67.0057 57.1573 67.0057H58.6615C58.8272 67.0057 58.9615 67.14 58.9615 67.3057C58.9615 67.4714 58.8272 67.6057 58.6615 67.6057H57.1573C56.9916 67.6057 56.8573 67.4714 56.8573 67.3057ZM59.8658 67.3057C59.8658 67.14 60.0001 67.0057 60.1658 67.0057H61.6701C61.8358 67.0057 61.9701 67.14 61.9701 67.3057C61.9701 67.4714 61.8358 67.6057 61.6701 67.6057H60.1658C60.0001 67.6057 59.8658 67.4714 59.8658 67.3057ZM62.8744 67.3057C62.8744 67.14 63.0087 67.0057 63.1744 67.0057H64.6787C64.8444 67.0057 64.9787 67.14 64.9787 67.3057C64.9787 67.4714 64.8444 67.6057 64.6787 67.6057H63.1744C63.0087 67.6057 62.8744 67.4714 62.8744 67.3057ZM65.883 67.3057C65.883 67.14 66.0173 67.0057 66.183 67.0057H67.6873C67.8529 67.0057 67.9873 67.14 67.9873 67.3057C67.9873 67.4714 67.8529 67.6057 67.6873 67.6057H66.183C66.0173 67.6057 65.883 67.4714 65.883 67.3057ZM68.8915 67.3057C68.8915 67.14 69.0259 67.0057 69.1915 67.0057H70.6958C70.8615 67.0057 70.9958 67.14 70.9958 67.3057C70.9958 67.4714 70.8615 67.6057 70.6958 67.6057H69.1915C69.0259 67.6057 68.8915 67.4714 68.8915 67.3057ZM71.9001 67.3057C71.9001 67.14 72.0344 67.0057 72.2001 67.0057H73.7044C73.8701 67.0057 74.0044 67.14 74.0044 67.3057C74.0044 67.4714 73.8701 67.6057 73.7044 67.6057H72.2001C72.0344 67.6057 71.9001 67.4714 71.9001 67.3057ZM74.9087 67.3057C74.9087 67.14 75.043 67.0057 75.2087 67.0057H76.713C76.8787 67.0057 77.013 67.14 77.013 67.3057C77.013 67.4714 76.8787 67.6057 76.713 67.6057H75.2087C75.043 67.6057 74.9087 67.4714 74.9087 67.3057ZM77.9173 67.3057C77.9173 67.14 78.0516 67.0057 78.2173 67.0057H79.7215C79.8872 67.0057 80.0215 67.14 80.0215 67.3057C80.0215 67.4714 79.8872 67.6057 79.7215 67.6057H78.2173C78.0516 67.6057 77.9173 67.4714 77.9173 67.3057ZM80.9258 67.3057C80.9258 67.14 81.0601 67.0057 81.2258 67.0057H82.7301C82.8958 67.0057 83.0301 67.14 83.0301 67.3057C83.0301 67.4714 82.8958 67.6057 82.7301 67.6057H81.2258C81.0601 67.6057 80.9258 67.4714 80.9258 67.3057ZM83.9344 67.3057C83.9344 67.14 84.0687 67.0057 84.2344 67.0057H85.7387C85.9044 67.0057 86.0387 67.14 86.0387 67.3057C86.0387 67.4714 85.9044 67.6057 85.7387 67.6057H84.2344C84.0687 67.6057 83.9344 67.4714 83.9344 67.3057ZM86.943 67.3057C86.943 67.14 87.0773 67.0057 87.243 67.0057H88.7473C88.9129 67.0057 89.0472 67.14 89.0472 67.3057C89.0472 67.4714 88.9129 67.6057 88.7473 67.6057H87.243C87.0773 67.6057 86.943 67.4714 86.943 67.3057Z" fill="#CED7E2"/>
<path d="M26.224 73.6658C26.224 72.8373 26.8956 72.1658 27.724 72.1658H90.904C91.7324 72.1658 92.404 72.8373 92.404 73.6658V87.5752C92.404 88.4036 91.7324 89.0752 90.904 89.0752H27.724C26.8956 89.0752 26.224 88.4036 26.224 87.5752V73.6658Z" fill="#E3EAF2"/>
<g filter="url(#filter1_d_1753_4805)">
<path d="M42.0541 74.9919H14.8175C14.0034 74.9919 13.4113 74.3264 13.4113 73.587V56.506C13.4113 55.6926 14.0774 55.1011 14.8175 55.1011H42.0541C42.8686 55.1011 43.4603 55.7666 43.4603 56.506V73.587C43.4603 74.4004 42.7943 74.9919 42.0541 74.9919Z" fill="url(#paint3_linear_1753_4805)"/>
</g>
<path d="M28.4359 64.1962C30.1118 64.1962 31.4708 62.8389 31.4708 61.1645C31.4708 59.4901 30.1118 58.1328 28.4359 58.1328C26.7601 58.1328 25.4014 59.4901 25.4014 61.1645C25.4014 62.8389 26.7601 64.1962 28.4359 64.1962Z" fill="white"/>
<path d="M37.9838 67.7454H18.9623C18.6662 67.7454 18.4442 67.5236 18.4442 67.2278C18.4442 66.932 18.6662 66.7102 18.9623 66.7102H37.9096C38.2058 66.7102 38.4278 66.932 38.4278 67.2278C38.5021 67.5236 38.2801 67.7454 37.9838 67.7454Z" fill="white"/>
<path d="M37.9838 71.7384H18.9623C18.6662 71.7384 18.4442 71.5165 18.4442 71.2208C18.4442 70.925 18.6662 70.7031 18.9623 70.7031H37.9096C38.2058 70.7031 38.4278 70.925 38.4278 71.2208C38.5021 71.5165 38.2801 71.7384 37.9838 71.7384Z" fill="white"/>
<defs>
<filter id="filter0_d_1753_4805" x="18.3884" y="38.1129" width="86.181" height="64.7958" filterUnits="userSpaceOnUse" color-interpolation-filters="sRGB">
<feFlood flood-opacity="0" result="BackgroundImageFix"/>
<feColorMatrix in="SourceAlpha" type="matrix" values="0 0 0 0 0 0 0 0 0 0 0 0 0 0 0 0 0 0 127 0" result="hardAlpha"/>
<feOffset dx="2" dy="4"/>
<feGaussianBlur stdDeviation="2"/>
<feComposite in2="hardAlpha" operator="out"/>
<feColorMatrix type="matrix" values="0 0 0 0 0.0666667 0 0 0 0 0.0941176 0 0 0 0 0.152941 0 0 0 0.08 0"/>
<feBlend mode="normal" in2="BackgroundImageFix" result="effect1_dropShadow_1753_4805"/>
<feBlend mode="normal" in="SourceGraphic" in2="effect1_dropShadow_1753_4805" result="shape"/>
</filter>
<filter id="filter1_d_1753_4805" x="5.41125" y="52.1011" width="46.0491" height="35.8909" filterUnits="userSpaceOnUse" color-interpolation-filters="sRGB">
<feFlood flood-opacity="0" result="BackgroundImageFix"/>
<feColorMatrix in="SourceAlpha" type="matrix" values="0 0 0 0 0 0 0 0 0 0 0 0 0 0 0 0 0 0 127 0" result="hardAlpha"/>
<feOffset dy="5"/>
<feGaussianBlur stdDeviation="4"/>
<feColorMatrix type="matrix" values="0 0 0 0 0.1125 0 0 0 0 0.295916 0 0 0 0 1 0 0 0 0.22 0"/>
<feBlend mode="normal" in2="BackgroundImageFix" result="effect1_dropShadow_1753_4805"/>
<feBlend mode="normal" in="SourceGraphic" in2="effect1_dropShadow_1753_4805" result="shape"/>
</filter>
<linearGradient id="paint0_linear_1753_4805" x1="20.25" y1="42" x2="98.625" y2="42.0001" gradientUnits="userSpaceOnUse">
<stop stop-color="#7C3AED"/>
<stop offset="1" stop-color="#B082FF"/>
</linearGradient>
<linearGradient id="paint1_linear_1753_4805" x1="84.826" y1="17.9785" x2="87.7364" y2="17.9785" gradientUnits="userSpaceOnUse">
<stop stop-color="#FF66A9"/>
<stop offset="1" stop-color="#F53689"/>
</linearGradient>
<linearGradient id="paint2_linear_1753_4805" x1="12.1211" y1="80.3686" x2="15.0314" y2="80.3686" gradientUnits="userSpaceOnUse">
<stop stop-color="#FF66A9"/>
<stop offset="1" stop-color="#F53689"/>
</linearGradient>
<linearGradient id="paint3_linear_1753_4805" x1="13.3511" y1="65.0371" x2="43.4558" y2="65.0371" gradientUnits="userSpaceOnUse">
<stop stop-color="#83A6FF"/>
<stop offset="1" stop-color="#5A78FF"/>
</linearGradient>
</defs>
</svg>
