<svg width="104" height="204" viewBox="0 0 104 204" fill="none" xmlns="http://www.w3.org/2000/svg">
<path d="M46.8841 111.658C53.6981 111.658 59.222 106.134 59.222 99.3201C59.222 92.5061 53.6981 86.9822 46.8841 86.9822C40.07 86.9822 34.5461 92.5061 34.5461 99.3201C34.5461 106.134 40.07 111.658 46.8841 111.658Z" fill="#BFBAF4"/>
<path d="M26.218 122.762C30.8175 122.762 34.5461 119.034 34.5461 114.434C34.5461 109.835 30.8175 106.106 26.218 106.106C21.6185 106.106 17.8899 109.835 17.8899 114.434C17.8899 119.034 21.6185 122.762 26.218 122.762Z" fill="#BFBAF4"/>
<path d="M27.4519 99.937C30.0072 99.937 32.0786 97.8656 32.0786 95.3103C32.0786 92.755 30.0072 90.6836 27.4519 90.6836C24.8966 90.6836 22.8252 92.755 22.8252 95.3103C22.8252 97.8656 24.8966 99.937 27.4519 99.937Z" fill="#BFBAF4"/>
<path d="M4.62672 41.3318C7.18198 41.3318 9.25344 39.2604 9.25344 36.7051C9.25344 34.1498 7.18198 32.0784 4.62672 32.0784C2.07145 32.0784 0 34.1498 0 36.7051C0 39.2604 2.07145 41.3318 4.62672 41.3318Z" fill="#BFBAF4"/>
<path d="M81.7387 203.575C93.8336 203.575 103.638 193.771 103.638 181.676C103.638 169.581 93.8336 159.776 81.7387 159.776C69.6437 159.776 59.8389 169.581 59.8389 181.676C59.8389 193.771 69.6437 203.575 81.7387 203.575Z" fill="#E3E1FB"/>
<path d="M76.1865 15.4224C80.4453 15.4224 83.8977 11.97 83.8977 7.7112C83.8977 3.45242 80.4453 0 76.1865 0C71.9278 0 68.4753 3.45242 68.4753 7.7112C68.4753 11.97 71.9278 15.4224 76.1865 15.4224Z" fill="#E3E1FB"/>
<path d="M51.5108 169.029C55.7695 169.029 59.222 165.577 59.222 161.318C59.222 157.059 55.7695 153.607 51.5108 153.607C47.252 153.607 43.7996 157.059 43.7996 161.318C43.7996 165.577 47.252 169.029 51.5108 169.029Z" fill="#E3E1FB"/>
</svg>
